<svg width="19" height="17" viewBox="0 0 19 17" fill="none" xmlns="http://www.w3.org/2000/svg">
<path d="M12.1875 11.3218L11.5951 10.7122L12.1875 11.3218ZM12.5822 10.9382L13.1746 11.5477L12.5822 10.9382ZM14.6766 10.6699L14.2778 11.4205H14.2778L14.6766 10.6699ZM16.3324 11.5496L15.9336 12.3002L16.3324 11.5496ZM16.799 14.3067L17.3914 14.9163L16.799 14.3067ZM15.5678 15.5032L14.9754 14.8936L15.5678 15.5032ZM14.4196 16.0705L14.4968 16.917L14.4196 16.0705ZM5.87351 12.4801L6.4659 11.8706L5.87351 12.4801ZM1.7027 4.87275L0.854131 4.92209L0.854131 4.92209L1.7027 4.87275ZM7.31404 6.10249L7.90644 6.71206V6.71206L7.31404 6.10249ZM7.44987 3.85448L8.12467 3.33762V3.33762L7.44987 3.85448ZM6.35702 2.42769L5.68222 2.94456L5.68222 2.94456L6.35702 2.42769ZM3.66012 2.18691L4.25251 2.79648L4.25251 2.79648L3.66012 2.18691ZM2.2998 3.50891L1.70741 2.89934L1.70741 2.89934L2.2998 3.50891ZM8.68823 9.74472L9.28063 9.13515L8.68823 9.74472ZM12.7799 11.9313L13.1746 11.5477L11.9898 10.3286L11.5951 10.7122L12.7799 11.9313ZM14.2778 11.4205L15.9336 12.3002L16.7312 10.799L15.0755 9.91923L14.2778 11.4205ZM16.2066 13.6972L14.9754 14.8936L16.1602 16.1128L17.3914 14.9163L16.2066 13.6972ZM14.3425 15.224C13.1275 15.3347 9.9355 15.2424 6.4659 11.8706L5.28111 13.0897C9.1726 16.8716 12.8874 17.0636 14.4968 16.917L14.3425 15.224ZM6.4659 11.8706C3.14818 8.64633 2.6171 5.95556 2.55126 4.82341L0.854131 4.92209C0.944555 6.47717 1.65745 9.56815 5.28111 13.0897L6.4659 11.8706ZM7.65786 6.95363L7.90644 6.71206L6.72165 5.49292L6.47308 5.73449L7.65786 6.95363ZM8.12467 3.33762L7.03181 1.91083L5.68222 2.94456L6.77507 4.37135L8.12467 3.33762ZM3.06773 1.57735L1.70741 2.89934L2.89219 4.11848L4.25251 2.79648L3.06773 1.57735ZM7.06547 6.34406C6.47308 5.73449 6.47226 5.73529 6.47144 5.73609C6.47116 5.73636 6.47034 5.73717 6.46978 5.73771C6.46867 5.73881 6.46754 5.73992 6.46639 5.74106C6.4641 5.74334 6.46175 5.7457 6.45934 5.74814C6.45452 5.75303 6.44947 5.75827 6.44421 5.76385C6.43368 5.77503 6.4223 5.78761 6.41026 5.80166C6.38619 5.82973 6.35942 5.8637 6.33159 5.90385C6.27579 5.98435 6.21608 6.08919 6.16578 6.21968C6.06266 6.48717 6.01132 6.83061 6.07699 7.24432C6.2045 8.04765 6.76046 9.05652 8.09584 10.3543L9.28063 9.13515C8.05501 7.94407 7.79958 7.25261 7.75597 6.97782C7.73607 6.85248 7.75922 6.81241 7.752 6.83116C7.74964 6.83728 7.74323 6.85144 7.72873 6.87236C7.72155 6.88271 7.71244 6.89466 7.70086 6.90816C7.69507 6.91492 7.68864 6.92208 7.68151 6.92965C7.67794 6.93344 7.6742 6.93733 7.67026 6.94132C7.66829 6.94332 7.66628 6.94534 7.66421 6.94739C7.66318 6.94842 7.66213 6.94945 7.66107 6.95049C7.66055 6.95101 7.65974 6.9518 7.65948 6.95205C7.65867 6.95284 7.65786 6.95363 7.06547 6.34406ZM8.09584 10.3543C9.43417 11.6549 10.4654 12.1862 11.2722 12.3072C11.6855 12.3691 12.0264 12.3206 12.2917 12.2241C12.4216 12.1768 12.5265 12.1204 12.6078 12.0672C12.6482 12.0407 12.6827 12.0151 12.7112 11.992C12.7255 11.9804 12.7383 11.9695 12.7498 11.9593C12.7555 11.9542 12.7608 11.9493 12.7659 11.9447C12.7684 11.9423 12.7708 11.94 12.7731 11.9378C12.7743 11.9367 12.7754 11.9356 12.7766 11.9345C12.7771 11.934 12.778 11.9332 12.7782 11.9329C12.7791 11.9321 12.7799 11.9313 12.1875 11.3218C11.5951 10.7122 11.5959 10.7114 11.5967 10.7106C11.597 10.7104 11.5978 10.7096 11.5983 10.7091C11.5994 10.7081 11.6004 10.707 11.6015 10.706C11.6036 10.704 11.6057 10.7021 11.6077 10.7002C11.6118 10.6964 11.6158 10.6927 11.6197 10.6893C11.6274 10.6824 11.6346 10.6763 11.6414 10.6708C11.655 10.6598 11.6667 10.6514 11.6766 10.6449C11.6965 10.6319 11.7081 10.6273 11.7101 10.6266C11.7194 10.6232 11.6657 10.6472 11.5243 10.626C11.2217 10.5806 10.5033 10.3234 9.28063 9.13515L8.09584 10.3543ZM7.03181 1.91083C6.07783 0.665341 4.21005 0.467208 3.06773 1.57735L4.25251 2.79648C4.626 2.43351 5.31372 2.46346 5.68222 2.94456L7.03181 1.91083ZM2.55126 4.82341C2.53924 4.61653 2.63423 4.36917 2.89219 4.11848L1.70741 2.89934C1.21376 3.37908 0.805085 4.07859 0.854131 4.92209L2.55126 4.82341ZM14.9754 14.8936C14.762 15.1011 14.5463 15.2054 14.3425 15.224L14.4968 16.917C15.1863 16.8541 15.7476 16.5138 16.1602 16.1128L14.9754 14.8936ZM7.90644 6.71206C8.84149 5.80335 8.90916 4.36182 8.12467 3.33762L6.77507 4.37135C7.05907 4.74212 7.01129 5.21144 6.72165 5.49292L7.90644 6.71206ZM15.9336 12.3002C16.5329 12.6186 16.5883 13.3262 16.2066 13.6972L17.3914 14.9163C18.6717 13.6721 18.2585 11.6104 16.7312 10.799L15.9336 12.3002ZM13.1746 11.5477C13.4416 11.2882 13.8882 11.2135 14.2778 11.4205L15.0755 9.91923C14.0688 9.38435 12.8141 9.52754 11.9898 10.3286L13.1746 11.5477Z" fill="#C51A26"/>
</svg>
