<svg width="18" height="19" viewBox="0 0 18 19" fill="none" xmlns="http://www.w3.org/2000/svg">
<g clip-path="url(#clip0_17_490)">
<path d="M9.75001 2.03825V1.25C9.75001 1.05109 9.67099 0.860322 9.53034 0.71967C9.38969 0.579018 9.19892 0.5 9.00001 0.5C8.8011 0.5 8.61033 0.579018 8.46968 0.71967C8.32903 0.860322 8.25001 1.05109 8.25001 1.25V2.03825C6.74009 2.17362 5.29683 2.72315 4.07925 3.62631C2.86167 4.52948 1.91703 5.75121 1.3494 7.15691C0.781767 8.56261 0.613178 10.0977 0.862206 11.5931C1.11123 13.0885 1.76821 14.4861 2.76076 15.632C2.36879 15.8259 2.04123 16.129 1.81755 16.5048C1.59387 16.8806 1.48359 17.313 1.50001 17.75C1.50001 17.9489 1.57903 18.1397 1.71968 18.2803C1.86033 18.421 2.0511 18.5 2.25001 18.5C2.44892 18.5 2.63969 18.421 2.78034 18.2803C2.92099 18.1397 3.00001 17.9489 3.00001 17.75C2.99378 17.5188 3.07677 17.2941 3.23177 17.1225C3.38678 16.9509 3.6019 16.8455 3.83251 16.8283C3.8841 16.8184 3.93442 16.8028 3.98251 16.7817C5.41916 17.896 7.18564 18.5008 9.00376 18.5008C10.8219 18.5008 12.5884 17.896 14.025 16.7817C14.0689 16.802 14.1146 16.818 14.1615 16.8298C14.3929 16.8455 14.6093 16.95 14.7655 17.1215C14.9218 17.293 15.0058 17.5181 15 17.75C15 17.9489 15.079 18.1397 15.2197 18.2803C15.3603 18.421 15.5511 18.5 15.75 18.5C15.9489 18.5 16.1397 18.421 16.2803 18.2803C16.421 18.1397 16.5 17.9489 16.5 17.75C16.5164 17.313 16.4062 16.8806 16.1825 16.5048C15.9588 16.129 15.6312 15.8259 15.2393 15.632C16.2318 14.4861 16.8888 13.0885 17.1378 11.5931C17.3868 10.0977 17.2183 8.56261 16.6506 7.15691C16.083 5.75121 15.1383 4.52948 13.9208 3.62631C12.7032 2.72315 11.2599 2.17362 9.75001 2.03825ZM2.25001 10.25C2.25001 8.91498 2.64589 7.60993 3.38759 6.4999C4.12929 5.38987 5.1835 4.5247 6.4169 4.01381C7.6503 3.50292 9.0075 3.36925 10.3169 3.6297C11.6262 3.89015 12.829 4.53302 13.773 5.47703C14.717 6.42103 15.3599 7.62377 15.6203 8.93314C15.8808 10.2425 15.7471 11.5997 15.2362 12.8331C14.7253 14.0665 13.8601 15.1207 12.7501 15.8624C11.6401 16.6041 10.335 17 9.00001 17C7.21047 16.9978 5.49485 16.286 4.22945 15.0206C2.96405 13.7552 2.25219 12.0395 2.25001 10.25Z" fill="#EB5757"/>
<path d="M14.4113 0.499892C14.2123 0.499892 14.0216 0.57891 13.8809 0.719562C13.7403 0.860214 13.6613 1.05098 13.6613 1.24989C13.6613 1.4488 13.7403 1.63957 13.8809 1.78022C14.0216 1.92087 14.2123 1.99989 14.4113 1.99989C14.6728 1.98001 14.9356 2.0133 15.184 2.09775C15.4323 2.18221 15.6609 2.31607 15.8561 2.49128C16.0513 2.66649 16.2089 2.87941 16.3196 3.1172C16.4303 3.355 16.4916 3.61274 16.5 3.87489C16.5 4.0738 16.579 4.26457 16.7197 4.40522C16.8603 4.54587 17.0511 4.62489 17.25 4.62489C17.4489 4.62489 17.6397 4.54587 17.7803 4.40522C17.921 4.26457 18 4.0738 18 3.87489C17.9904 3.41626 17.8894 2.96415 17.703 2.54501C17.5166 2.12587 17.2485 1.74812 16.9143 1.43386C16.5801 1.11959 16.1866 0.875122 15.7568 0.714755C15.3271 0.554388 14.8696 0.481343 14.4113 0.499892Z" fill="#EB5757"/>
<path d="M1.5 3.87489C1.50836 3.61274 1.56972 3.355 1.68039 3.1172C1.79106 2.87941 1.94873 2.66649 2.14391 2.49128C2.3391 2.31607 2.56774 2.18221 2.81605 2.09775C3.06437 2.0133 3.32722 1.98001 3.58875 1.99989C3.78766 1.99989 3.97843 1.92087 4.11908 1.78022C4.25973 1.63957 4.33875 1.4488 4.33875 1.24989C4.33875 1.05098 4.25973 0.860214 4.11908 0.719562C3.97843 0.57891 3.78766 0.499892 3.58875 0.499892C3.1304 0.481343 2.67295 0.554388 2.24316 0.714755C1.81338 0.875122 1.41989 1.11959 1.08572 1.43386C0.751551 1.74812 0.48341 2.12587 0.296986 2.54501C0.110561 2.96415 0.00959718 3.41626 0 3.87489C0 4.0738 0.0790176 4.26457 0.21967 4.40522C0.360322 4.54587 0.551088 4.62489 0.75 4.62489C0.948912 4.62489 1.13968 4.54587 1.28033 4.40522C1.42098 4.26457 1.5 4.0738 1.5 3.87489Z" fill="#EB5757"/>
<path d="M9.75 9.1895V5.75C9.75 5.55109 9.67098 5.36032 9.53033 5.21967C9.38968 5.07902 9.19891 5 9 5C8.80109 5 8.61032 5.07902 8.46967 5.21967C8.32902 5.36032 8.25 5.55109 8.25 5.75V9.5C8.25004 9.6989 8.32909 9.88963 8.46975 10.0302L10.7198 12.2802C10.8612 12.4169 11.0507 12.4925 11.2473 12.4908C11.4439 12.489 11.6321 12.4102 11.7711 12.2711C11.9102 12.1321 11.989 11.9439 11.9908 11.7473C11.9925 11.5507 11.9169 11.3612 11.7802 11.2198L9.75 9.1895Z" fill="#EB5757"/>
</g>
<defs>
<clipPath id="clip0_17_490">
<rect width="18" height="18" fill="white" transform="translate(0 0.5)"/>
</clipPath>
</defs>
</svg>
