<svg width="18" height="19" viewBox="0 0 18 19" fill="none" xmlns="http://www.w3.org/2000/svg">
<g clip-path="url(#clip0_21_1188)">
<path d="M10.95 16.4752C10.725 16.6447 10.4858 16.8232 10.2825 17.0002H12C12.1989 17.0002 12.3897 17.0792 12.5303 17.2198C12.671 17.3605 12.75 17.5512 12.75 17.7502C12.75 17.9491 12.671 18.1398 12.5303 18.2805C12.3897 18.4211 12.1989 18.5002 12 18.5002H9C8.80109 18.5002 8.61033 18.4211 8.46967 18.2805C8.32902 18.1398 8.25 17.9491 8.25 17.7502C8.25 16.6252 9.20625 15.9082 10.05 15.2752C10.6125 14.8537 11.25 14.3752 11.25 14.0002C11.25 13.8012 11.171 13.6105 11.0303 13.4698C10.8897 13.3292 10.6989 13.2502 10.5 13.2502C10.3011 13.2502 10.1103 13.3292 9.96968 13.4698C9.82902 13.6105 9.75 13.8012 9.75 14.0002C9.75 14.1991 9.67099 14.3898 9.53033 14.5305C9.38968 14.6711 9.19892 14.7502 9 14.7502C8.80109 14.7502 8.61033 14.6711 8.46967 14.5305C8.32902 14.3898 8.25 14.1991 8.25 14.0002C8.25 13.4034 8.48706 12.8311 8.90901 12.4092C9.33097 11.9872 9.90327 11.7502 10.5 11.7502C11.0967 11.7502 11.669 11.9872 12.091 12.4092C12.513 12.8311 12.75 13.4034 12.75 14.0002C12.75 15.1252 11.7938 15.8422 10.95 16.4752ZM17.25 11.7502C17.0511 11.7502 16.8603 11.8292 16.7197 11.9698C16.579 12.1105 16.5 12.3012 16.5 12.5002V14.7502H15.75C15.5511 14.7502 15.3603 14.6711 15.2197 14.5305C15.079 14.3898 15 14.1991 15 14.0002V12.5002C15 12.3012 14.921 12.1105 14.7803 11.9698C14.6397 11.8292 14.4489 11.7502 14.25 11.7502C14.0511 11.7502 13.8603 11.8292 13.7197 11.9698C13.579 12.1105 13.5 12.3012 13.5 12.5002V14.0002C13.5 14.5969 13.7371 15.1692 14.159 15.5911C14.581 16.0131 15.1533 16.2502 15.75 16.2502H16.5V17.7502C16.5 17.9491 16.579 18.1398 16.7197 18.2805C16.8603 18.4211 17.0511 18.5002 17.25 18.5002C17.4489 18.5002 17.6397 18.4211 17.7803 18.2805C17.921 18.1398 18 17.9491 18 17.7502V12.5002C18 12.3012 17.921 12.1105 17.7803 11.9698C17.6397 11.8292 17.4489 11.7502 17.25 11.7502ZM9.75 9.50016V5.75016C9.75 5.55125 9.67099 5.36048 9.53033 5.21983C9.38968 5.07918 9.19892 5.00016 9 5.00016C8.80109 5.00016 8.61033 5.07918 8.46967 5.21983C8.32902 5.36048 8.25 5.55125 8.25 5.75016V8.75016H6C5.80109 8.75016 5.61033 8.82918 5.46967 8.96983C5.32902 9.11048 5.25 9.30125 5.25 9.50016C5.25 9.69907 5.32902 9.88984 5.46967 10.0305C5.61033 10.1711 5.80109 10.2502 6 10.2502H9C9.19892 10.2502 9.38968 10.1711 9.53033 10.0305C9.67099 9.88984 9.75 9.69907 9.75 9.50016ZM17.25 2.00016C17.0511 2.00016 16.8603 2.07918 16.7197 2.21983C16.579 2.36048 16.5 2.55125 16.5 2.75016V4.53066C15.7186 3.35134 14.6701 2.37285 13.4397 1.67459C12.2093 0.976322 10.8316 0.577952 9.41843 0.511799C8.00525 0.445646 6.59638 0.713573 5.30613 1.29384C4.01588 1.87411 2.88059 2.75037 1.99239 3.85154C1.10419 4.9527 0.488093 6.24774 0.194084 7.63158C-0.0999237 9.01542 -0.063559 10.4491 0.300228 11.8162C0.664015 13.1834 1.34498 14.4455 2.28786 15.5002C3.23075 16.555 4.40899 17.3725 5.727 17.8867C5.81411 17.9203 5.90665 17.9375 6 17.9377C6.17502 17.9379 6.34463 17.877 6.47944 17.7654C6.61426 17.6538 6.70579 17.4985 6.7382 17.3265C6.7706 17.1545 6.74183 16.9766 6.65688 16.8236C6.57192 16.6706 6.43612 16.5521 6.273 16.4887C5.15402 16.056 4.15517 15.3612 3.36029 14.4625C2.56541 13.5639 1.99771 12.4877 1.70484 11.3243C1.41196 10.1609 1.40246 8.94417 1.67714 7.77631C1.95181 6.60845 2.50264 5.52353 3.28339 4.61261C4.06414 3.7017 5.05202 2.99137 6.16411 2.54126C7.2762 2.09116 8.48004 1.9144 9.67458 2.02584C10.8691 2.13728 12.0195 2.53366 13.0291 3.1817C14.0388 3.82975 14.8782 4.71054 15.477 5.75016H13.5C13.3011 5.75016 13.1103 5.82918 12.9697 5.96983C12.829 6.11048 12.75 6.30125 12.75 6.50016C12.75 6.69907 12.829 6.88984 12.9697 7.03049C13.1103 7.17114 13.3011 7.25016 13.5 7.25016H15.75C16.3467 7.25016 16.919 7.01311 17.341 6.59115C17.763 6.16919 18 5.5969 18 5.00016V2.75016C18 2.55125 17.921 2.36048 17.7803 2.21983C17.6397 2.07918 17.4489 2.00016 17.25 2.00016Z" fill="#EB5757"/>
</g>
<defs>
<clipPath id="clip0_21_1188">
<rect width="18" height="18" fill="white" transform="translate(0 0.5)"/>
</clipPath>
</defs>
</svg>
