<svg width="40" height="40" viewBox="0 0 40 40" fill="none" xmlns="http://www.w3.org/2000/svg">
<path d="M13.1815 34.435C12.924 34.435 12.6664 34.435 12.3721 34.3977C11.4891 34.323 10.9005 34.0242 10.5325 33.5387C9.87031 32.6797 10.1647 31.4472 10.7901 30.7375C11.1948 30.252 12.5192 29.8412 14.2116 29.3557C14.8003 29.1689 15.3153 29.0569 15.5361 28.9448C15.6833 28.8701 15.8672 28.9448 15.904 29.0942C15.9776 29.2436 15.904 29.4304 15.7569 29.4677C15.4993 29.5798 14.9842 29.7291 14.3588 29.9159C13.2919 30.2147 11.5259 30.7375 11.1948 31.111C10.7165 31.6713 10.5326 32.605 10.9741 33.1652C11.2316 33.5013 11.7098 33.7254 12.4089 33.8001C13.9541 33.9495 15.4993 33.576 17.0077 33.2025C17.3021 33.1278 17.5964 33.0531 17.8907 32.9784C19.6935 32.5303 21.7906 32.2315 23.6669 33.0905C23.8141 33.1652 23.8876 33.3519 23.814 33.5013C23.7404 33.6507 23.5565 33.7254 23.4093 33.6507C21.717 32.8664 19.7303 33.1652 18.0379 33.576C17.7436 33.6507 17.4492 33.7254 17.1549 33.8001C15.904 34.0989 14.5428 34.435 13.1815 34.435Z" fill="#1F1F1F"/>
<path d="M10.4222 32.3436C10.3854 32.3436 10.3854 32.3436 10.3486 32.3436C10.0175 32.2689 9.79677 32.2315 9.57603 32.1942C8.28835 31.9328 8.25155 31.8954 6.30164 29.3184C5.97052 28.8702 5.60263 28.3847 5.12435 27.7871C4.05741 26.4052 2.73295 26.1064 2.1443 26.3679C1.88676 26.4799 1.73959 26.704 1.81317 27.0028C1.84996 27.1522 1.73956 27.3016 1.55561 27.3389C1.40844 27.3763 1.26132 27.2642 1.22453 27.0775C1.15094 26.5173 1.40844 26.0317 1.92352 25.8076C2.8065 25.4342 4.3885 25.8823 5.6026 27.4136C6.04409 28.0112 6.44882 28.5341 6.77993 28.9449C8.65627 31.4099 8.65628 31.4099 9.68642 31.5966C9.90716 31.634 10.1647 31.6713 10.4958 31.7834C10.643 31.8207 10.7533 31.9701 10.7165 32.1568C10.6797 32.2315 10.5694 32.3436 10.4222 32.3436Z" fill="#1F1F1F"/>
<path d="M12.5192 30.4762C12.4824 30.4762 12.4088 30.4762 12.372 30.4388C11.857 30.1027 11.2315 29.916 10.5693 29.6545C9.39197 29.2437 8.06751 28.7955 7.03737 27.6377C6.74304 27.3016 6.52229 27.0028 6.33833 26.704C5.93363 26.1438 5.56574 25.6209 4.60918 24.986C4.46202 24.9113 4.42524 24.7245 4.53562 24.5751C4.6092 24.4258 4.79314 24.3884 4.94031 24.5005C5.97045 25.2101 6.37514 25.7703 6.81663 26.3679C7.00059 26.6293 7.22135 26.9281 7.47888 27.2269C8.39866 28.2726 9.61272 28.6835 10.7532 29.0943C11.4523 29.3184 12.1145 29.5798 12.6664 29.916C12.8135 29.9906 12.8503 30.1774 12.7767 30.3268C12.7031 30.4015 12.5928 30.4762 12.5192 30.4762Z" fill="#1F1F1F"/>
<path d="M38.0887 24.4258C38.0887 24.4258 30.4731 26.2185 29.0014 25.9197C26.9044 25.4715 25.2488 25.0233 23.1517 25.6956C22.0847 26.0691 20.7235 26.9281 19.7301 27.5257C17.7802 28.7208 17.9274 28.5341 16.6029 28.9823C14.9841 28.5341 13.1445 27.9739 11.6361 27.0775C9.723 25.9197 7.80987 24.5752 7.22122 24.239C5.7128 23.3427 5.30809 24.1643 4.68264 24.6872C3.91004 24.1643 1.92333 24.127 2.10728 25.733C2.14408 26.2185 1.51866 25.9944 1.44508 26.9655C1.3347 28.6088 4.97699 32.4183 7.92026 34.7712C10.7164 36.1905 15.352 38.7302 19.3254 39.6265C21.165 40.0374 28.6335 36.676 33.3059 34.9953C36.0653 34.0243 35.3294 34.7339 37.3897 34.3231C38.4199 33.4267 38.0887 24.4258 38.0887 24.4258Z" fill="white"/>
<path d="M19.767 40C19.6198 40 19.4727 40 19.3255 39.9627C15.7568 39.141 11.5995 37.0122 8.84015 35.5929C8.47224 35.4062 8.14114 35.2568 7.84681 35.07L7.80998 35.0327C5.01388 32.7918 1.11409 28.7955 1.22446 26.9655C1.26125 26.2559 1.59237 26.0318 1.77632 25.8824C1.81311 25.845 1.84988 25.8077 1.88667 25.8077C1.88667 25.8077 1.88667 25.8077 1.88667 25.7703C1.81309 25.1354 2.03386 24.6499 2.51214 24.3511C3.13758 23.9776 4.09415 24.0523 4.71959 24.3511C4.75638 24.3137 4.79314 24.2764 4.82994 24.239C5.34501 23.7535 5.97045 23.1186 7.40529 24.0149C7.62604 24.127 7.99396 24.3884 8.47224 24.6872C9.35522 25.2848 10.5693 26.1065 11.8202 26.8161C13.1815 27.6377 14.9474 28.198 16.603 28.6835C16.8605 28.6088 17.0445 28.5341 17.1916 28.4967C17.8171 28.2727 18.0746 28.198 19.5463 27.3016L19.7302 27.1896C20.6868 26.592 21.9745 25.7703 23.0414 25.4342C25.0649 24.7619 26.6837 25.1354 28.56 25.5462L29.0383 25.6583C30.1788 25.9197 35.8814 24.6499 37.9785 24.1643C38.0521 24.127 38.1625 24.1643 38.236 24.2017C38.3096 24.239 38.3464 24.3511 38.3464 24.4258C38.42 25.9571 38.6407 33.5761 37.6474 34.5845C37.6106 34.6219 37.537 34.6592 37.5002 34.6592C36.654 34.8086 36.2493 34.8086 35.8814 34.7713C35.4031 34.7339 35.0352 34.7339 33.4532 35.2941C32.1656 35.7423 30.6571 36.3399 29.0751 36.9748C25.1753 38.5434 21.4594 40 19.767 40ZM8.14111 34.5845C8.43544 34.7339 8.76655 34.9207 9.09766 35.07C11.8202 36.4893 15.9408 38.6181 19.4359 39.4024C20.6868 39.7012 25.0281 37.9459 28.8544 36.4519C30.4364 35.817 31.9448 35.2568 33.2325 34.7713C34.9249 34.1737 35.3663 34.1737 35.9182 34.211C36.2125 34.211 36.5805 34.2484 37.2795 34.1363C37.8313 33.3147 37.9049 28.3847 37.7577 24.8366C36.1389 25.2101 30.2524 26.5173 28.8912 26.2558L28.4129 26.1438C26.5365 25.733 25.0281 25.3968 23.1886 26.0318C22.1952 26.3679 20.9443 27.1522 20.0246 27.7124L19.8406 27.8245C18.2954 28.7955 18.0011 28.8702 17.3388 29.0943C17.1549 29.169 16.9341 29.2064 16.6766 29.3184C16.603 29.3558 16.5662 29.3558 16.4927 29.3184C14.7635 28.8329 12.9239 28.2353 11.4523 27.3763C10.2014 26.6293 8.98732 25.8077 8.06755 25.2101C7.58927 24.9113 7.22134 24.6499 7.03739 24.5378C5.97045 23.9029 5.63934 24.239 5.16106 24.6872C5.05069 24.7993 4.97709 24.874 4.86672 24.986C4.75634 25.0607 4.60922 25.0607 4.53564 24.986C4.09415 24.6872 3.24794 24.5752 2.76966 24.874C2.51212 25.0607 2.36495 25.3221 2.43853 25.733C2.47532 26.1065 2.25457 26.2932 2.1074 26.4052C1.96024 26.5173 1.81311 26.6293 1.77632 27.0402C1.73953 28.4221 5.01389 32.0448 8.14111 34.5845Z" fill="#1F1F1F"/>
<path d="M14.9842 33.6134C13.954 33.6134 13.1447 33.352 12.5192 32.5303C11.857 31.634 12.2985 30.8496 12.8503 30.1774C13.255 29.6918 14.5795 29.281 16.2719 28.7955C16.8605 28.6087 17.3756 28.4967 17.5964 28.3846C17.7435 28.31 17.9275 28.3847 17.9643 28.534C18.0379 28.6834 17.9643 28.8702 17.8171 28.9075C17.5596 29.0196 17.0445 29.169 16.419 29.3557C15.3521 29.6545 13.5861 30.1774 13.255 30.5509C12.6664 31.2605 12.5928 31.6713 12.9239 32.1568C13.8437 33.352 15.3521 33.0905 17.6699 32.6424C19.1416 32.3809 20.9443 32.0448 23.0046 32.0448C23.1518 32.0448 23.2989 32.1942 23.2989 32.3436C23.2989 32.493 23.1518 32.6424 23.0046 32.6424C20.9811 32.6424 19.2887 32.9411 17.7803 33.2399C16.787 33.464 15.8304 33.6134 14.9842 33.6134Z" fill="#1F1F1F"/>
<path d="M13.2918 33.1652C13.255 33.1652 13.2182 33.1652 13.1814 33.1279C10.4221 31.7834 7.92031 30.14 5.9336 28.3847C5.82323 28.2726 5.67607 28.1606 5.52891 28.0112C4.71951 27.2642 3.2111 25.845 2.18095 26.2558C2.03379 26.3305 1.84984 26.2558 1.81304 26.1064C1.73946 25.957 1.81305 25.7703 1.96022 25.7329C3.32148 25.1727 4.94025 26.704 5.9336 27.6003C6.08076 27.7497 6.19114 27.8618 6.30151 27.9365C8.25142 29.6545 10.7164 31.2605 13.4022 32.5677C13.5493 32.6424 13.6229 32.8291 13.5493 32.9785C13.5125 33.1279 13.4021 33.1652 13.2918 33.1652Z" fill="#1F1F1F"/>
<path d="M13.2918 30.4762C13.255 30.4762 13.255 30.4762 13.2182 30.4762C11.0108 29.9533 8.72973 28.1233 6.89018 26.704C5.97041 25.9571 5.16105 25.3221 4.5356 24.986C4.38844 24.9113 4.35163 24.7246 4.42521 24.5752C4.4988 24.4258 4.68274 24.3884 4.8299 24.4631C5.49214 24.8366 6.30153 25.4715 7.25809 26.2185C9.06084 27.6377 11.2683 29.3931 13.3654 29.8786C13.5126 29.916 13.6229 30.0654 13.5861 30.2521C13.5494 30.3642 13.439 30.4762 13.2918 30.4762Z" fill="#1F1F1F"/>
<path d="M9.24487 7.28296C10.8637 6.90947 12.2617 5.86372 13.1447 4.59388C14.0277 3.32404 14.506 1.79276 14.7267 0.298828C14.9107 1.45662 15.205 2.61442 15.6097 3.73487C16.1616 5.34085 16.9342 6.57334 19.252 7.28296C16.6031 8.70219 14.8371 11.3913 14.6899 14.1924C14.506 12.6985 14.2852 11.1298 13.3655 9.85999C12.5193 8.6275 11.0108 7.80583 9.24487 7.28296Z" fill="#6FCF97"/>
<path d="M14.69 14.4538C14.5429 14.4538 14.4325 14.3417 14.3957 14.1923C14.2117 12.8105 14.0278 11.2418 13.1448 10.0093C12.409 8.96359 11.0478 8.14192 9.17142 7.5817C9.06105 7.54435 8.95068 7.43231 8.95068 7.28292C8.95068 7.13352 9.06105 7.02148 9.17142 7.02148C10.6063 6.68534 11.9675 5.75164 12.8873 4.44445C13.6599 3.324 14.1749 1.97946 14.4325 0.261437C14.4693 0.112044 14.5797 0 14.7268 0C14.874 0 14.9844 0.112044 15.0212 0.261437C15.2051 1.38189 15.4994 2.53968 15.8673 3.62278C16.4192 5.22876 17.155 6.31186 19.3257 6.98413C19.4361 7.02148 19.5096 7.13352 19.5464 7.24557C19.5464 7.35761 19.5096 7.46966 19.3992 7.54435C16.8607 8.92624 15.1315 11.5406 14.9843 14.1923C14.9843 14.3044 14.874 14.4164 14.69 14.4538ZM10.2015 7.28292C11.7835 7.88049 12.9241 8.6648 13.6231 9.63585C14.2118 10.4575 14.5429 11.3912 14.7268 12.3249C15.3155 10.3081 16.7135 8.47806 18.5531 7.32026C16.64 6.5733 15.8673 5.3408 15.3155 3.80952C15.0947 3.13725 14.874 2.46499 14.7268 1.75537C14.4325 2.91316 13.991 3.88422 13.3656 4.74323C12.5562 5.90103 11.4156 6.79739 10.2015 7.28292Z" fill="#1F1F1F"/>
<path d="M19.583 16.2092C20.7603 15.9851 21.7537 15.2755 22.4159 14.4538C23.0782 13.6322 23.4093 12.6611 23.5932 11.6901C23.7404 12.437 23.9612 13.184 24.2187 13.8936C24.6234 14.9394 25.212 15.7237 26.8676 16.1719C24.9545 17.1056 23.63 18.8236 23.5564 20.6163C23.4093 19.6452 23.2621 18.6368 22.5999 17.8152C21.9744 17.1056 20.8707 16.5827 19.583 16.2092Z" fill="#6FCF97"/>
<path d="M23.5565 20.9524C23.4094 20.9524 23.299 20.8403 23.2622 20.6909C23.1518 19.7946 23.0047 18.8235 22.3793 18.0392C21.8274 17.4043 20.8708 16.8814 19.5096 16.4706C19.3624 16.4332 19.2888 16.3212 19.2888 16.1718C19.2888 16.0224 19.3992 15.9104 19.5096 15.873C20.5397 15.6489 21.5331 15.0514 22.1953 14.2297C22.7472 13.5201 23.1151 12.6611 23.299 11.578C23.3358 11.4286 23.4462 11.3165 23.5933 11.3165C23.7405 11.3165 23.8509 11.4286 23.8877 11.5406C24.0348 12.2502 24.2188 12.9972 24.5131 13.7068C24.9178 14.7152 25.4329 15.3875 26.9781 15.8357C27.0885 15.873 27.1989 15.9851 27.1989 16.0971C27.1989 16.2092 27.1253 16.3212 27.0149 16.3959C25.1754 17.2549 23.9613 18.8982 23.8509 20.6163C23.8509 20.8403 23.7405 20.9524 23.5565 20.9524ZM20.5765 16.2465C21.6066 16.62 22.3424 17.1055 22.8207 17.7031C23.1886 18.1513 23.4462 18.7115 23.5933 19.2344C24.0348 18.0766 24.9546 17.0308 26.1319 16.2839C24.8442 15.761 24.3292 15.014 23.9245 14.043C23.7773 13.6695 23.6669 13.3333 23.5565 12.9599C23.3358 13.6321 23.0415 14.1923 22.6368 14.6779C22.1217 15.3501 21.3859 15.9104 20.5765 16.2465Z" fill="#1F1F1F"/>
<path d="M36.1389 32.8665C36.0653 32.8665 36.0286 32.7918 36.0286 32.7545C36.3229 31.2606 36.4332 29.7666 36.3229 28.2727C36.3229 28.2353 36.3597 28.1606 36.3965 28.1606C36.4701 28.1606 36.5068 28.198 36.5068 28.2353C36.5804 29.7666 36.5068 31.2979 36.2125 32.7918C36.2125 32.8292 36.1757 32.8665 36.1389 32.8665Z" fill="#1F1F1F"/>
<path d="M34.5938 32.9785C34.557 32.9785 34.557 32.9785 34.5938 32.9785C34.5202 32.9412 34.4834 32.9038 34.4834 32.8291C34.6674 32.3062 34.741 31.7834 34.741 31.2231C34.741 31.1858 34.7777 31.1111 34.8513 31.1111C34.8881 31.1111 34.9617 31.1484 34.9617 31.2231C34.9617 31.7834 34.8513 32.3436 34.7042 32.8665C34.6674 32.9412 34.6306 32.9785 34.5938 32.9785Z" fill="#1F1F1F"/>
</svg>
