<svg width="66" height="66" viewBox="0 0 66 66" fill="none" xmlns="http://www.w3.org/2000/svg">
<path d="M20.6506 27.824C24.4846 29.4672 27.2779 32.0415 28.8115 36.9162C30.0713 40.9145 35.1103 57.4008 36.4796 61.2896C37.1916 63.2066 38.3418 65.3427 40.3684 65.507C40.697 65.5618 41.0256 65.507 41.2447 65.3427C41.5186 65.1784 41.6829 64.8498 41.7924 64.5759C42.3402 63.0423 41.7924 61.3991 41.2447 59.9203C39.8754 56.0863 34.6721 39.7095 33.3028 35.8755C32.4812 33.5751 31.6049 31.1103 32.1526 28.7004C32.6456 26.5643 34.1792 24.702 34.3983 22.5112C29.414 23.278 24.5393 24.8116 19.9933 27.0025C19.9933 27.3311 20.0481 27.605 20.6506 27.824Z" fill="#EB5757"/>
<path d="M40.5875 66C40.5327 66 40.4232 66 40.3684 66C38.561 65.8357 37.1369 64.3021 36.0962 61.4539C35.0008 58.4963 31.9336 48.4183 29.8522 41.7361C29.195 39.6548 28.702 37.9568 28.3734 37.0257C27.0041 32.644 24.5394 29.9054 20.4862 28.2075C19.829 27.9336 19.5551 27.5502 19.6099 27.0025C19.6099 26.8382 19.7195 26.7286 19.829 26.6739C24.4298 24.4282 29.3045 22.8946 34.3435 22.1278C34.4531 22.1278 34.6174 22.1278 34.7269 22.2373C34.8364 22.3469 34.8912 22.4564 34.8365 22.6208C34.6721 23.8805 34.1244 25.0307 33.6315 26.1809C33.1933 27.112 32.7551 27.9336 32.5908 28.8647C32.0979 31.2199 32.9742 33.7394 33.741 35.766C34.453 37.683 36.0962 42.8315 37.7393 47.8158C39.3277 52.8 41.0257 57.8938 41.7377 59.8108C42.3402 61.5087 42.8879 63.2066 42.2854 64.795C42.1211 65.288 41.902 65.6166 41.5734 65.7809C41.2447 65.9452 40.9709 66 40.5875 66ZM20.8149 27.4407C25.0871 29.2481 27.7709 32.2058 29.195 36.8066C29.5236 37.7925 30.0165 39.4905 30.6738 41.517C32.7004 48.1444 35.8223 58.2224 36.9178 61.1801C37.7941 63.6996 38.9991 65.0141 40.4232 65.1236C40.697 65.1236 40.9161 65.1236 41.0257 65.0141C41.19 64.9046 41.2995 64.7402 41.4091 64.4664C41.902 63.1519 41.4091 61.6183 40.8613 60.0846C40.1493 58.1676 38.5062 53.0191 36.863 48.0349C35.2746 43.0506 33.5767 37.9568 32.8647 36.0398C32.0979 33.9037 31.112 31.2199 31.7145 28.6456C31.9335 27.605 32.3717 26.6739 32.8099 25.7427C33.2481 24.8116 33.6315 23.99 33.8506 23.0589C29.195 23.8257 24.7037 25.2498 20.4862 27.2764C20.5958 27.3311 20.6506 27.3859 20.8149 27.4407Z" fill="#1F1F1F"/>
<path d="M5.2597 26.1809L9.42238 30.9461L43.4904 20.4299L44.0381 14.1859L5.2597 26.1809Z" fill="white"/>
<path d="M9.4224 31.3295C9.31286 31.3295 9.20329 31.2747 9.09375 31.1652L4.93111 26.4C4.82156 26.2905 4.82156 26.1262 4.82156 26.0166C4.87633 25.8523 4.98587 25.7427 5.09541 25.7427L43.8738 13.7477C44.0381 13.693 44.1477 13.7477 44.2572 13.8025C44.3668 13.912 44.4215 14.0216 44.4215 14.1859L43.8191 20.4299C43.8191 20.5942 43.6547 20.7585 43.4904 20.8133L9.47716 31.2747C9.53193 31.3295 9.47717 31.3295 9.4224 31.3295ZM6.02654 26.4L9.58671 30.4531L43.0522 20.156L43.5452 14.8432L6.02654 26.4Z" fill="white"/>
<path d="M9.25801 28.81C9.20324 28.81 9.14848 28.7552 9.0937 28.7005C9.0937 28.6457 9.09371 28.5361 9.20325 28.5361L41.5734 18.4581C41.6281 18.4581 41.7377 18.4581 41.7377 18.5677C41.7377 18.6225 41.7377 18.732 41.6282 18.732L9.25801 28.81Z" fill="#1F1F1F"/>
<path d="M60.6888 42.941C60.6888 42.941 47.5984 44.3651 42.2855 40.3667C42.0664 40.0929 41.683 39.6547 41.2448 39.107C40.8614 38.7784 40.5328 38.5045 40.1494 38.2307C39.7112 38.0116 39.2183 37.7925 38.7254 37.6282C37.4108 37.1352 36.0415 36.8614 34.6722 36.697C34.5079 36.697 34.2888 36.697 34.1245 36.6423C34.6175 37.5734 35.0556 38.3402 35.1104 38.8331C35.1652 39.5452 35.22 40.5858 34.5079 40.9145C34.2341 41.024 32.9195 41.1335 32.5909 41.1335C31.2216 41.0788 27.9901 40.9692 26.6208 41.0788C26.0731 41.1336 23.7726 40.9145 23.3345 41.2431C22.4581 41.9551 21.527 44.8033 25.361 45.2962C24.4847 45.7344 23.7179 46.7203 23.7726 47.5966C23.8822 48.5277 24.7585 49.1302 25.5801 49.6232C24.8681 50.1161 24.4847 50.6091 24.5942 51.3759C24.7038 52.1975 25.7444 53.4572 27.1685 53.5667C25.7444 53.7858 25.3063 55.6481 26.4565 56.3053C29.5237 58.1676 36.0963 59.263 44.2025 56.9078C46.9959 56.0863 60.9079 56.7435 60.9079 56.7435L60.6888 42.941Z" fill="white"/>
<path d="M35.2747 58.7153C31.2216 58.7153 28.0996 57.839 26.2374 56.6888C25.5801 56.3054 25.2515 55.5933 25.4158 54.7717C25.5253 54.3336 25.6897 53.9502 26.0183 53.6763C24.9776 53.1834 24.2656 52.1427 24.2108 51.4307C24.1013 50.6091 24.4299 50.0614 24.8681 49.678C24.2108 49.2398 23.444 48.5825 23.3893 47.6514C23.3345 46.8846 23.7179 46.063 24.3204 45.5153C22.9511 45.1319 22.4034 44.3103 22.239 43.7078C21.9104 42.6672 22.4581 41.4622 23.0606 40.9145C23.444 40.6406 24.2108 40.5858 25.854 40.6406C26.1826 40.6406 26.4565 40.6406 26.6208 40.6406C28.0448 40.5311 31.4955 40.6406 32.6457 40.6954C32.9743 40.6954 34.1793 40.5859 34.3436 40.5311C34.8366 40.312 34.727 39.2166 34.6722 38.8879C34.6175 38.5593 34.2888 37.8473 33.8507 37.0805L33.7411 36.8614C33.6863 36.6971 33.6863 36.5327 33.7411 36.4232C33.8507 36.3137 33.9602 36.2041 34.1245 36.2041C34.2888 36.2041 34.5079 36.2041 34.6722 36.2589C36.3154 36.4232 37.6299 36.7518 38.8349 37.19C39.3278 37.3543 39.8208 37.5734 40.3137 37.8473L40.3685 37.902C40.8067 38.2307 41.1901 38.5593 41.5187 38.8332L41.5735 38.8879C42.0116 39.3809 42.3403 39.819 42.5594 40.0929C47.6532 43.8722 60.4697 42.5576 60.5793 42.5029C60.6888 42.5029 60.7984 42.5029 60.9079 42.6124C61.0175 42.6672 61.0722 42.8315 61.0722 42.941L61.2913 56.7983C61.2913 56.9078 61.2366 57.0174 61.1818 57.1269C61.0722 57.2365 60.9627 57.2365 60.8531 57.2365C60.6888 57.2365 46.9959 56.5792 44.3121 57.4008C40.971 58.3319 37.9585 58.7153 35.2747 58.7153ZM24.9229 41.517C24.3204 41.517 23.7179 41.517 23.5536 41.6265C23.2249 41.9004 22.7868 42.7767 23.0059 43.4888C23.2249 44.2556 24.0465 44.7485 25.361 44.8581C25.5253 44.8581 25.6897 45.0224 25.7444 45.2414C25.7992 45.4058 25.6897 45.6249 25.5253 45.6796C24.8133 46.0083 24.1013 46.8298 24.2108 47.5419C24.2656 48.1991 25.0324 48.7468 25.854 49.2398C25.9635 49.2946 26.0731 49.4589 26.0731 49.6232C26.0731 49.7875 26.0183 49.8971 25.9088 50.0066C25.2515 50.4448 25.0324 50.8282 25.0872 51.3759C25.1419 51.9236 25.9635 53.0738 27.2233 53.1834C27.4424 53.1834 27.6067 53.4024 27.6067 53.6215C27.6067 53.8406 27.4424 54.0597 27.2233 54.0597C26.6208 54.1692 26.3469 54.6074 26.2374 54.9908C26.1826 55.429 26.2921 55.7576 26.6208 55.9767C29.7428 57.839 36.3701 58.7701 44.0382 56.5244C46.6125 55.8124 57.8955 56.2506 60.415 56.3601L60.1959 43.434C57.7311 43.6531 46.8316 44.3651 41.9569 40.7502L41.9021 40.6954C41.683 40.4215 41.3544 39.9834 40.9162 39.4904C40.6424 39.2165 40.3137 38.9975 39.8756 38.6688C39.4374 38.4497 38.9992 38.2307 38.561 38.0664C37.4656 37.683 36.3154 37.4091 34.8913 37.19C35.22 37.8473 35.4938 38.395 35.5486 38.8332C35.6033 39.3809 35.7677 40.8597 34.727 41.3527C34.3436 41.517 32.9195 41.6265 32.5909 41.6265C31.4407 41.5717 28.0449 41.4622 26.6756 41.5717C26.5113 41.5717 26.1826 41.5717 25.854 41.5717C25.5801 41.517 25.2515 41.517 24.9229 41.517Z" fill="#1F1F1F"/>
<path d="M27.7162 45.8987L24.8133 45.6796C24.5942 45.6796 24.3751 45.4605 24.4299 45.1867C24.4299 44.9676 24.649 44.7485 24.9228 44.8033L27.771 45.0223C27.99 45.0223 28.2091 45.2414 28.1543 45.5153C28.1543 45.7344 27.9353 45.8987 27.7162 45.8987Z" fill="#1F1F1F"/>
<path d="M27.0589 50.2257C26.4564 50.2257 25.6348 50.1161 25.1419 49.8423C24.9228 49.7327 24.8133 49.4589 24.9228 49.2398C25.0324 49.0207 25.3062 48.9112 25.5253 49.0207C25.9635 49.2398 26.785 49.3493 27.278 49.2946C27.4971 49.2946 27.7162 49.4589 27.7162 49.6779C27.7162 49.897 27.5518 50.1161 27.3328 50.1161C27.2232 50.2257 27.1137 50.2257 27.0589 50.2257Z" fill="#1F1F1F"/>
<path d="M58.224 55.0457C58.1693 55.0457 58.0597 54.9909 58.0597 54.8814V46.7751H58.3336V54.8814C58.3884 54.9909 58.2788 55.0457 58.224 55.0457Z" fill="#1F1F1F"/>
<path d="M55.9785 54.717C55.9237 54.717 55.8141 54.6622 55.8141 54.5527V52.5261C55.8141 52.4714 55.8689 52.3618 55.9785 52.3618C56.0332 52.3618 56.1428 52.4166 56.1428 52.5261V54.5527C56.1428 54.6075 56.0332 54.717 55.9785 54.717Z" fill="#1F1F1F"/>
<path d="M4.43815 12.2689C4.21907 12.2689 3.99998 12.1046 3.99998 11.8307C3.99998 11.6116 4.16429 11.3925 4.43815 11.3925C5.20496 11.3378 5.86221 11.283 6.51947 11.283C7.17673 11.2282 7.83402 11.1735 8.60083 11.1735C8.81991 11.1735 9.03899 11.3378 9.03899 11.6116C9.03899 11.8307 8.87469 12.0498 8.60083 12.0498C7.83402 12.1046 7.17673 12.1593 6.51947 12.1593C5.86221 12.2141 5.20496 12.2689 4.43815 12.2689Z" fill="#1F1F1F"/>
<path d="M10.956 10.1328C10.737 10.1328 10.5179 9.96847 10.5179 9.74939L10.244 5.58673C10.244 5.36764 10.4083 5.14856 10.6274 5.14856C10.8465 5.14856 11.0656 5.31287 11.0656 5.53196L11.3395 9.69461C11.3942 9.9137 11.2299 10.078 10.956 10.1328Z" fill="#1F1F1F"/>
<path d="M16.1045 12.0498H12.873C12.6539 12.0498 12.4348 11.8307 12.4348 11.6116C12.4348 11.3925 12.6539 11.1735 12.873 11.1735H16.1045C16.3236 11.1735 16.5427 11.3925 16.5427 11.6116C16.4879 11.8307 16.3236 12.0498 16.1045 12.0498Z" fill="#1F1F1F"/>
<path d="M10.956 18.4581C10.6822 18.4581 10.5179 18.239 10.5179 17.9651C10.6274 16.6506 10.6274 15.3361 10.5179 14.0763C10.5179 13.8573 10.6821 13.6382 10.9012 13.5834C11.1203 13.5834 11.3394 13.7477 11.3942 13.9668C11.5037 15.3361 11.5037 16.6506 11.3942 18.0199C11.3942 18.2938 11.1751 18.4581 10.956 18.4581Z" fill="#1F1F1F"/>
<path d="M21.6365 5.69627C21.4174 5.69627 21.1983 5.53195 21.1983 5.25809C21.1983 5.039 21.3626 4.81991 21.6365 4.81991C22.1294 4.81991 22.458 4.76514 22.7866 4.71037C23.1153 4.6556 23.4987 4.6556 23.9916 4.60083C24.2655 4.60083 24.4298 4.76514 24.4298 5.039C24.4298 5.25808 24.2655 5.47717 23.9916 5.47717C23.4987 5.47717 23.1153 5.53194 22.7866 5.58672C22.5128 5.64149 22.1842 5.69627 21.6365 5.69627Z" fill="#1F1F1F"/>
<path d="M26.0182 3.61494C25.7991 3.61494 25.58 3.45062 25.58 3.17676C25.5253 2.68382 25.5253 2.24564 25.4705 1.80747C25.4157 1.3693 25.4157 0.931122 25.3609 0.438176C25.3609 0.219089 25.5253 0 25.7443 0C25.9634 0 26.1825 0.164314 26.1825 0.383401C26.2373 0.876347 26.2373 1.31452 26.2921 1.7527C26.3468 2.19087 26.3468 2.62904 26.4016 3.12199C26.4564 3.39585 26.2921 3.61494 26.0182 3.61494Z" fill="#1F1F1F"/>
<path d="M28.0995 5.53196C27.9899 5.53196 27.8256 5.53196 27.7161 5.53196C27.497 5.53196 27.2779 5.31287 27.2779 5.09378C27.2779 4.8747 27.497 4.65561 27.7161 4.65561C28.0447 4.65561 28.3186 4.65561 28.5376 4.65561C28.7567 4.65561 28.9758 4.65561 29.3592 4.65561C29.5783 4.65561 29.7974 4.8747 29.7974 5.09378C29.7974 5.31287 29.5783 5.53196 29.3592 5.53196C29.0306 5.53196 28.8115 5.53196 28.5376 5.53196C28.3733 5.53196 28.209 5.53196 28.0995 5.53196Z" fill="#1F1F1F"/>
<path d="M25.9086 10.1328C25.6347 10.1328 25.4704 9.9137 25.4704 9.63984C25.5252 8.70872 25.5252 8.161 25.4704 7.17511C25.4704 6.95602 25.6347 6.73693 25.8538 6.68216C26.0729 6.68216 26.292 6.84648 26.3467 7.06557C26.4015 8.05146 26.4015 8.70872 26.3467 9.63984C26.3467 9.96847 26.1824 10.1328 25.9086 10.1328Z" fill="#1F1F1F"/>
</svg>
