<svg width="40" height="40" viewBox="0 0 40 40" fill="none" xmlns="http://www.w3.org/2000/svg">
<path d="M12.5155 16.8631C14.8392 17.859 16.5321 19.4191 17.4616 22.3735C18.2251 24.7967 21.279 34.7884 22.1089 37.1453C22.5404 38.3071 23.2375 39.6017 24.4657 39.7013C24.6649 39.7345 24.8641 39.7013 24.9969 39.6017C25.1628 39.5021 25.2624 39.3029 25.3288 39.137C25.6607 38.2075 25.3288 37.2117 24.9969 36.3154C24.167 33.9917 21.0134 24.0664 20.1836 21.7428C19.6856 20.3486 19.1545 18.8548 19.4865 17.3942C19.7852 16.0996 20.7147 14.971 20.8475 13.6432C17.8267 14.1079 14.8724 15.0374 12.1172 16.3652C12.1172 16.5644 12.1504 16.7303 12.5155 16.8631Z" fill="#6FCF97"/>
<path d="M24.5984 40.0001C24.5652 40.0001 24.4989 40.0001 24.4657 40.0001C23.3702 39.9005 22.5071 38.971 21.8764 37.2449C21.2125 35.4524 19.3536 29.3445 18.0922 25.2947C17.6939 24.0333 17.3951 23.0042 17.1959 22.4399C16.3661 19.7843 14.8723 18.1246 12.4159 17.0955C12.0175 16.9296 11.8516 16.6972 11.8847 16.3652C11.8847 16.2657 11.9511 16.1993 12.0175 16.1661C14.8059 14.8051 17.7603 13.8756 20.8142 13.4109C20.8806 13.4109 20.9802 13.4109 21.0466 13.4773C21.113 13.5437 21.1462 13.6101 21.113 13.7096C21.0134 14.4731 20.6814 15.1702 20.3827 15.8673C20.1171 16.4316 19.8516 16.9296 19.752 17.4939C19.4532 18.9213 19.9843 20.4482 20.4491 21.6764C20.8806 22.8383 21.8764 25.9586 22.8723 28.9793C23.8349 32.0001 24.864 35.0872 25.2955 36.2491C25.6607 37.2781 25.9926 38.3071 25.6275 39.2698C25.5279 39.5686 25.3951 39.7677 25.1959 39.8673C24.9968 39.9669 24.8308 40.0001 24.5984 40.0001ZM12.615 16.6308C15.2043 17.7262 16.8308 19.5188 17.6939 22.3071C17.893 22.9047 18.1918 23.9337 18.5901 25.1619C19.8184 29.1785 21.7105 35.2864 22.3744 37.0789C22.9055 38.6059 23.6358 39.4026 24.4989 39.469C24.6648 39.469 24.7976 39.469 24.864 39.4026C24.9636 39.3362 25.03 39.2366 25.0964 39.0706C25.3951 38.274 25.0964 37.3445 24.7644 36.415C24.3329 35.2532 23.337 32.1329 22.3412 29.1121C21.3785 26.0914 20.3495 23.0042 19.9179 21.8424C19.4532 20.5478 18.8557 18.9213 19.2208 17.3611C19.3536 16.7304 19.6192 16.1661 19.8847 15.6018C20.1503 15.0374 20.3827 14.5395 20.5154 13.9752C17.6939 14.4399 14.9719 15.303 12.4159 16.5312C12.4822 16.5644 12.5155 16.5976 12.615 16.6308Z" fill="#1F1F1F"/>
<path d="M3.18774 15.8672L5.71058 18.7552L26.3579 12.3818L26.6898 8.59753L3.18774 15.8672Z" fill="white"/>
<path d="M5.71051 18.9876C5.64412 18.9876 5.57772 18.9544 5.51133 18.888L2.98851 16C2.92212 15.9336 2.92212 15.8341 2.92212 15.7677C2.95531 15.6681 3.0217 15.6017 3.08809 15.6017L26.5902 8.33199C26.6897 8.29879 26.7561 8.33198 26.8225 8.36518C26.8889 8.43157 26.9221 8.49796 26.9221 8.59755L26.557 12.3818C26.557 12.4814 26.4574 12.581 26.3578 12.6141L5.7437 18.9544C5.77689 18.9876 5.7437 18.9876 5.71051 18.9876ZM3.65241 16L5.81009 18.4565L26.0922 12.2158L26.391 8.99589L3.65241 16Z" fill="white"/>
<path d="M5.61081 17.4606C5.57762 17.4606 5.54443 17.4274 5.51123 17.3942C5.51123 17.361 5.51123 17.2946 5.57762 17.2946L25.1959 11.1868C25.2291 11.1868 25.2955 11.1868 25.2955 11.2532C25.2955 11.2864 25.2955 11.3527 25.2291 11.3527L5.61081 17.4606Z" fill="#1F1F1F"/>
<path d="M36.7812 26.0248C36.7812 26.0248 28.8476 26.8879 25.6277 24.4647C25.4949 24.2987 25.2625 24.0331 24.997 23.7012C24.7646 23.502 24.5654 23.336 24.3331 23.1701C24.0675 23.0373 23.7688 22.9045 23.47 22.8049C22.6733 22.5061 21.8434 22.3402 21.0136 22.2406C20.914 22.2406 20.7812 22.2406 20.6816 22.2074C20.9804 22.7717 21.2459 23.2364 21.2791 23.5352C21.3123 23.9667 21.3455 24.5974 20.914 24.7966C20.748 24.863 19.9513 24.9294 19.7522 24.9294C18.9223 24.8962 16.9638 24.8298 16.1339 24.8962C15.8019 24.9294 14.4078 24.7966 14.1422 24.9958C13.6111 25.4273 13.0468 27.1535 15.3704 27.4522C14.8393 27.7178 14.3746 28.3153 14.4077 28.8464C14.4741 29.4107 15.0053 29.7759 15.5032 30.0746C15.0717 30.3734 14.8393 30.6721 14.9057 31.1369C14.9721 31.6348 15.6028 32.3983 16.4658 32.4647C15.6028 32.5974 15.3372 33.7261 16.0343 34.1244C17.8932 35.253 21.8766 35.9169 26.7895 34.4896C28.4825 33.9916 36.914 34.39 36.914 34.39L36.7812 26.0248Z" fill="white"/>
<path d="M21.3787 35.585C18.9223 35.585 17.0301 35.0539 15.9015 34.3568C15.5032 34.1245 15.304 33.6929 15.4036 33.195C15.47 32.9295 15.5696 32.6971 15.7687 32.5311C15.138 32.2324 14.7065 31.6017 14.6733 31.1701C14.6069 30.6722 14.8061 30.3402 15.0716 30.1079C14.6733 29.8423 14.2086 29.444 14.1754 28.8797C14.1422 28.4149 14.3745 27.917 14.7397 27.585C13.9098 27.3527 13.5779 26.8548 13.4783 26.4896C13.2791 25.8589 13.6111 25.1286 13.9762 24.7967C14.2086 24.6307 14.6733 24.5975 15.6692 24.6307C15.8683 24.6307 16.0343 24.6307 16.1339 24.6307C16.997 24.5643 19.0882 24.6307 19.7853 24.6639C19.9845 24.6639 20.7148 24.5975 20.8144 24.5643C21.1132 24.4315 21.0468 23.7676 21.0136 23.5685C20.9804 23.3693 20.7812 22.9377 20.5156 22.473L20.4492 22.3402C20.416 22.2407 20.416 22.1411 20.4492 22.0747C20.5156 22.0083 20.582 21.9419 20.6816 21.9419C20.7812 21.9419 20.914 21.9419 21.0136 21.9751C22.0094 22.0747 22.8061 22.2739 23.5364 22.5394C23.8351 22.639 24.1339 22.7718 24.4326 22.9377L24.4658 22.9709C24.7314 23.1701 24.9638 23.3693 25.1629 23.5353L25.1961 23.5685C25.4617 23.8672 25.6609 24.1328 25.7936 24.2987C28.8808 26.5892 36.6484 25.7925 36.7148 25.7593C36.7812 25.7593 36.8476 25.7593 36.914 25.8257C36.9804 25.8589 37.0136 25.9585 37.0136 26.0249L37.1463 34.4232C37.1463 34.4896 37.1131 34.556 37.08 34.6224C37.0136 34.6888 36.9472 34.6888 36.8808 34.6888C36.7812 34.6888 28.4824 34.2904 26.8559 34.7884C24.831 35.3527 23.0053 35.585 21.3787 35.585ZM15.1048 25.1618C14.7397 25.1618 14.3746 25.1618 14.275 25.2282C14.0758 25.3942 13.8102 25.9253 13.943 26.3568C14.0758 26.8216 14.5737 27.1203 15.3704 27.1867C15.47 27.1867 15.5696 27.2863 15.6028 27.4191C15.636 27.5187 15.5696 27.6514 15.47 27.6846C15.0385 27.8838 14.6069 28.3817 14.6733 28.8133C14.7065 29.2116 15.1712 29.5436 15.6692 29.8423C15.7356 29.8755 15.8019 29.9751 15.8019 30.0747C15.8019 30.1743 15.7687 30.2407 15.7024 30.307C15.304 30.5726 15.1712 30.805 15.2044 31.1369C15.2376 31.4689 15.7356 32.166 16.499 32.2324C16.6318 32.2324 16.7314 32.3651 16.7314 32.4979C16.7314 32.6307 16.6318 32.7635 16.499 32.7635C16.1339 32.8299 15.9679 33.0954 15.9015 33.3278C15.8683 33.5934 15.9347 33.7925 16.1339 33.9253C18.026 35.0539 22.0426 35.6182 26.6899 34.2572C28.2501 33.8257 35.0882 34.0913 36.6152 34.1577L36.4824 26.3236C34.9887 26.4564 28.3828 26.888 25.4285 24.6971L25.3953 24.6639C25.2625 24.4979 25.0634 24.2324 24.7978 23.9336C24.6318 23.7676 24.4326 23.6348 24.1671 23.4357C23.9015 23.3029 23.636 23.1701 23.3704 23.0705C22.7065 22.8382 22.0094 22.6722 21.1463 22.5394C21.3455 22.9378 21.5115 23.2697 21.5447 23.5353C21.5779 23.8672 21.6775 24.7635 21.0467 25.0622C20.8144 25.1618 19.9513 25.2282 19.7522 25.2282C19.0551 25.195 16.997 25.1286 16.1671 25.195C16.0675 25.195 15.8683 25.195 15.6692 25.195C15.5032 25.1618 15.304 25.1618 15.1048 25.1618Z" fill="#1F1F1F"/>
<path d="M16.7976 27.8174L15.0383 27.6846C14.9055 27.6846 14.7727 27.5518 14.8059 27.3858C14.8059 27.2531 14.9387 27.1203 15.1047 27.1535L16.8308 27.2863C16.9636 27.2863 17.0964 27.419 17.0632 27.585C17.0632 27.7178 16.9304 27.8174 16.7976 27.8174Z" fill="#1F1F1F"/>
<path d="M16.3995 30.4398C16.0344 30.4398 15.5364 30.3734 15.2377 30.2074C15.1049 30.1411 15.0385 29.9751 15.1049 29.8423C15.1713 29.7095 15.3373 29.6431 15.47 29.7095C15.7356 29.8423 16.2335 29.9087 16.5323 29.8755C16.6651 29.8755 16.7978 29.9751 16.7978 30.1079C16.7978 30.2406 16.6983 30.3734 16.5655 30.3734C16.4991 30.4398 16.4327 30.4398 16.3995 30.4398Z" fill="#1F1F1F"/>
<path d="M35.2873 33.361C35.2541 33.361 35.1877 33.3278 35.1877 33.2614V28.3485H35.3537V33.2614C35.3869 33.3278 35.3205 33.361 35.2873 33.361Z" fill="#1F1F1F"/>
<path d="M33.9265 33.1618C33.8933 33.1618 33.8269 33.1286 33.8269 33.0622V31.834C33.8269 31.8008 33.8601 31.7344 33.9265 31.7344C33.9597 31.7344 34.0261 31.7676 34.0261 31.834V33.0622C34.0261 33.0954 33.9597 33.1618 33.9265 33.1618Z" fill="#1F1F1F"/>
<path d="M2.68987 7.43575C2.55709 7.43575 2.42432 7.33616 2.42432 7.17019C2.42432 7.03741 2.5239 6.90463 2.68987 6.90463C3.1546 6.87143 3.55294 6.83824 3.95128 6.83824C4.34962 6.80504 4.74798 6.77185 5.21271 6.77185C5.34549 6.77185 5.47826 6.87143 5.47826 7.03741C5.47826 7.17019 5.37868 7.30297 5.21271 7.30297C4.74798 7.33616 4.34962 7.36936 3.95128 7.36936C3.55294 7.40255 3.1546 7.43575 2.68987 7.43575Z" fill="#1F1F1F"/>
<path d="M6.64003 6.1411C6.50725 6.1411 6.37447 6.04152 6.37447 5.90874L6.2085 3.38592C6.2085 3.25314 6.30806 3.12036 6.44085 3.12036C6.57363 3.12036 6.70642 3.21995 6.70642 3.35273L6.8724 5.87554C6.90559 6.00832 6.806 6.10791 6.64003 6.1411Z" fill="#1F1F1F"/>
<path d="M9.76043 7.30297H7.80193C7.66915 7.30297 7.53638 7.17019 7.53638 7.03741C7.53638 6.90463 7.66915 6.77185 7.80193 6.77185H9.76043C9.89321 6.77185 10.026 6.90463 10.026 7.03741C9.99281 7.17019 9.89321 7.30297 9.76043 7.30297Z" fill="#1F1F1F"/>
<path d="M6.64007 11.1868C6.47409 11.1868 6.37451 11.054 6.37451 10.888C6.4409 10.0913 6.4409 9.29466 6.37451 8.53118C6.37451 8.39839 6.47408 8.26562 6.60686 8.23242C6.73964 8.23242 6.87243 8.33201 6.90562 8.46479C6.97201 9.29466 6.97201 10.0913 6.90562 10.9212C6.90562 11.0872 6.77285 11.1868 6.64007 11.1868Z" fill="#1F1F1F"/>
<path d="M13.113 3.45223C12.9802 3.45223 12.8474 3.35264 12.8474 3.18667C12.8474 3.05389 12.947 2.92111 13.113 2.92111C13.4117 2.92111 13.6109 2.88791 13.8101 2.85472C14.0092 2.82152 14.2416 2.82153 14.5404 2.78833C14.7063 2.78833 14.8059 2.88791 14.8059 3.05389C14.8059 3.18667 14.7063 3.31945 14.5404 3.31945C14.2416 3.31945 14.0092 3.35264 13.8101 3.38584C13.6441 3.41903 13.4449 3.45223 13.113 3.45223Z" fill="#1F1F1F"/>
<path d="M15.7685 2.19087C15.6357 2.19087 15.5029 2.09129 15.5029 1.92531C15.4697 1.62656 15.4697 1.361 15.4365 1.09544C15.4033 0.829876 15.4033 0.564316 15.3701 0.265561C15.3701 0.132781 15.4697 0 15.6025 0C15.7353 0 15.868 0.099584 15.868 0.232364C15.9012 0.531119 15.9012 0.796679 15.9344 1.06224C15.9676 1.3278 15.9676 1.59336 16.0008 1.89211C16.034 2.05809 15.9344 2.19087 15.7685 2.19087Z" fill="#1F1F1F"/>
<path d="M17.0299 3.35266C16.9635 3.35266 16.8639 3.35266 16.7975 3.35266C16.6648 3.35266 16.532 3.21987 16.532 3.08709C16.532 2.95431 16.6648 2.82153 16.7975 2.82153C16.9967 2.82153 17.1627 2.82153 17.2955 2.82153C17.4282 2.82153 17.561 2.82153 17.7934 2.82153C17.9262 2.82153 18.0589 2.95431 18.0589 3.08709C18.0589 3.21987 17.9262 3.35266 17.7934 3.35266C17.5942 3.35266 17.4614 3.35266 17.2955 3.35266C17.1959 3.35266 17.0963 3.35266 17.0299 3.35266Z" fill="#1F1F1F"/>
<path d="M15.7021 6.14109C15.5361 6.14109 15.4365 6.00831 15.4365 5.84234C15.4697 5.27802 15.4697 4.94607 15.4365 4.34856C15.4365 4.21578 15.5361 4.083 15.6689 4.0498C15.8017 4.0498 15.9344 4.14939 15.9676 4.28217C16.0008 4.87968 16.0008 5.27802 15.9676 5.84234C15.9676 6.04151 15.8681 6.14109 15.7021 6.14109Z" fill="#1F1F1F"/>
</svg>
