<svg width="40" height="40" viewBox="0 0 40 40" fill="none" xmlns="http://www.w3.org/2000/svg">
<path d="M15.6413 4.31992C15.5093 4.31992 15.3774 4.22099 15.3774 4.05611C15.3774 3.92421 15.4764 3.79231 15.6413 3.79231C16.1029 3.75933 16.4986 3.72635 16.8614 3.72635C17.2571 3.69338 17.6528 3.6604 18.1145 3.6604C18.2464 3.6604 18.3783 3.75933 18.3783 3.92421C18.3783 4.05611 18.2793 4.18802 18.1145 4.18802C17.6528 4.22099 17.2571 4.25397 16.8614 4.25397C16.4986 4.25397 16.1029 4.28695 15.6413 4.31992Z" fill="#1F1F1F"/>
<path d="M19.5654 3.00082C19.4335 3.00082 19.3016 2.9019 19.3016 2.76999L19.1367 0.263808C19.1367 0.131904 19.2356 0 19.3676 0C19.4995 0 19.6314 0.0989285 19.6314 0.230833L19.7962 2.73702C19.8292 2.86892 19.7303 3.00082 19.5654 3.00082Z" fill="#1F1F1F"/>
<path d="M22.6652 4.15494H20.7196C20.5877 4.15494 20.4558 4.02303 20.4558 3.89113C20.4558 3.75922 20.5877 3.62732 20.7196 3.62732H22.6652C22.7971 3.62732 22.929 3.75922 22.929 3.89113C22.929 4.05601 22.7971 4.15494 22.6652 4.15494Z" fill="#1F1F1F"/>
<path d="M19.5653 8.0462C19.4004 8.0462 19.3015 7.91429 19.3015 7.74941C19.3675 6.95799 19.3675 6.16656 19.3015 5.40811C19.3015 5.27621 19.4004 5.1443 19.5323 5.11133C19.6643 5.11133 19.7962 5.21026 19.8291 5.34216C19.8951 6.16656 19.8951 6.95799 19.8291 7.78239C19.8291 7.94727 19.6972 8.0462 19.5653 8.0462Z" fill="#1F1F1F"/>
<path d="M9.93626 14.2787C9.87031 13.6521 9.80436 13.0256 9.93626 12.399C10.0682 11.7725 10.4639 11.1789 11.0575 10.9481C11.3872 10.8162 12.6733 10.8162 13.9264 10.8162C14.6518 10.8162 15.3443 11.4097 15.5422 12.3331C15.7071 13.0915 15.4762 14.4765 15.4762 14.4765C15.4762 14.4765 11.618 15.4328 9.93626 14.2787Z" fill="white"/>
<path d="M12.4095 15.1031C11.4532 15.1031 10.4639 14.9712 9.77143 14.4765C9.70548 14.4436 9.67251 14.3776 9.67251 14.2787C9.60655 13.6851 9.50763 12.9926 9.67251 12.3001C9.83739 11.5087 10.332 10.9151 10.9586 10.6513C11.3213 10.5194 12.3106 10.5194 13.9264 10.5194C14.7838 10.5194 15.5752 11.2449 15.8061 12.2342C15.9709 13.0256 15.7401 14.4106 15.7401 14.4765C15.7071 14.5755 15.6412 14.6744 15.5422 14.6744C15.4103 14.7403 13.9594 15.1031 12.4095 15.1031ZM10.2001 14.1138C11.5851 14.9712 14.52 14.4106 15.2455 14.2457C15.3114 13.85 15.4103 12.9267 15.3114 12.399C15.1465 11.6406 14.5859 11.113 13.9594 11.113C12.8382 11.113 11.4862 11.113 11.1894 11.2119C10.6288 11.4098 10.332 12.0033 10.2331 12.465C10.0682 12.9926 10.1342 13.5532 10.2001 14.1138Z" fill="#1F1F1F"/>
<path d="M16.5314 39.6043C14.355 39.7692 12.1126 39.8021 9.87027 39.7032C8.38634 39.6373 7.13325 38.8128 6.47373 37.7576C5.81421 36.6694 5.48445 35.4493 5.28659 34.2621C4.75897 30.8986 5.25361 27.3372 7.36408 24.4023C7.99063 23.5119 8.78205 22.4897 8.28741 21.5664C8.08956 21.2036 7.72682 20.9398 7.39706 20.61C6.3748 19.5878 6.07802 18.1039 6.67159 16.8837C7.33111 15.5647 9.96919 14.4105 9.96919 14.4105L15.5092 14.3776C15.5092 14.3776 16.3666 14.6414 16.7293 14.8392C18.576 15.7955 19.4333 17.1805 19.0046 18.9283C18.7738 19.9175 18.2462 20.4452 17.7845 20.8739C16.6633 21.9621 17.2569 22.7535 17.7186 23.413C18.3781 24.3693 19.3014 25.2927 19.7631 27.7329C20.4226 31.3273 20.8843 35.3833 18.8068 38.4831C18.4111 39.1096 17.8175 39.5053 16.5314 39.6043Z" fill="white"/>
<path d="M12.6404 40C11.75 40 10.8267 39.9671 9.87037 39.9341C8.38644 39.8681 7.00145 39.0767 6.27598 37.8566C5.68241 36.8673 5.28669 35.7131 5.05586 34.2622C4.62717 31.5911 4.66015 27.7 7.16633 24.2045L7.26526 24.0726C7.85883 23.2482 8.48537 22.3908 8.05668 21.6653C7.92478 21.4345 7.72692 21.2366 7.49609 21.0388C7.39716 20.9399 7.29823 20.8739 7.23228 20.775C6.11109 19.6538 5.81431 18.0709 6.47383 16.7189C7.16633 15.3339 9.80442 14.1798 9.90335 14.1138C9.93632 14.1138 9.9693 14.0808 10.0023 14.0808L15.5423 14.0479C15.5752 14.0479 15.6082 14.0479 15.6412 14.0479C15.6742 14.0479 16.5315 14.3446 16.8943 14.5425C18.9058 15.5977 19.7632 17.1476 19.3015 18.9283C19.0377 19.9506 18.5431 20.5112 18.0155 21.0058C17.0921 21.8962 17.4878 22.4897 17.9495 23.1493L17.9825 23.2152C18.0814 23.3801 18.2133 23.545 18.3123 23.7098C18.9058 24.5342 19.6643 25.5565 20.06 27.667C20.7525 31.5252 21.1152 35.5153 19.0377 38.615C18.5101 39.4065 17.7846 39.7692 16.5645 39.8681C15.3114 39.9671 13.9924 40 12.6404 40ZM10.0352 14.6414C9.67251 14.8063 7.46311 15.8286 6.90252 16.9497C6.34193 18.0709 6.60574 19.423 7.56204 20.3793C7.62799 20.4452 7.72692 20.5441 7.82585 20.6101C8.08966 20.8409 8.32049 21.0718 8.48537 21.3685C9.04597 22.3908 8.28752 23.479 7.66097 24.3364L7.56204 24.4683C5.15479 27.8319 5.12181 31.5911 5.5505 34.1303C5.78133 35.5153 6.14407 36.6365 6.70466 37.5268C7.36419 38.5821 8.5843 39.3075 9.87037 39.3405C12.1787 39.4394 14.4211 39.4394 16.4986 39.2416C17.8176 39.1427 18.2793 38.681 18.5761 38.2193C20.5546 35.2515 20.1919 31.3933 19.4994 27.634C19.1367 25.6554 18.4442 24.7321 17.8506 23.9077C17.7187 23.7428 17.6198 23.5779 17.4878 23.4131L17.4549 23.3471C16.9932 22.6546 16.3337 21.6983 17.5868 20.5112C18.0484 20.0495 18.5101 19.5549 18.708 18.6975C19.2026 16.7519 17.8176 15.5648 16.5645 14.9052C16.2677 14.7403 15.6082 14.5095 15.4433 14.4765L10.0352 14.6414Z" fill="#1F1F1F"/>
<path d="M7.19927 27.3702C7.16629 27.3702 7.10034 27.3372 7.10034 27.2713C7.10034 27.2383 7.13332 27.1723 7.19927 27.1723L18.2463 27.0074C18.3122 27.0074 18.3452 27.0404 18.3452 27.1064C18.3452 27.1394 18.3122 27.2053 18.2463 27.2053L7.19927 27.3702Z" fill="#1F1F1F"/>
<path d="M7.16631 36.3067C7.13334 36.3067 7.06738 36.2737 7.06738 36.2078C7.06738 36.1748 7.10036 36.1089 7.16631 36.1089C11.1564 35.911 15.1795 35.845 19.1696 35.977C19.2026 35.977 19.2685 36.0099 19.2685 36.0759C19.2685 36.1089 19.2356 36.1748 19.1696 36.1748C15.1795 36.0429 11.1234 36.0759 7.16631 36.3067Z" fill="#1F1F1F"/>
<path d="M7.06743 28.5573C7.03446 28.5573 6.96851 28.5243 6.96851 28.4584C6.96851 28.4254 7.00148 28.3594 7.06743 28.3594C7.89183 28.3265 8.74921 28.3265 9.60659 28.3594C9.63957 28.3594 9.70552 28.3924 9.70552 28.4584C9.70552 28.4914 9.67254 28.5573 9.60659 28.5573C8.74921 28.5243 7.89183 28.5243 7.06743 28.5573Z" fill="#1F1F1F"/>
<path d="M28.7657 18.9942C27.018 18.9942 25.3033 18.2357 24.1821 16.8837C23.0939 15.5317 22.5992 13.718 22.83 11.9703C23.3247 7.84827 27.2159 5.0453 28.8647 1.25305C30.0848 3.16567 31.3049 5.07828 32.525 6.99089C33.5473 8.57374 34.5695 10.1896 34.9652 12.0362C35.361 13.8829 34.7674 18.9942 28.7657 18.9942Z" fill="#6FCF97"/>
<path d="M28.7657 19.258C26.8861 19.258 25.1054 18.4336 23.9842 17.0486C22.863 15.6636 22.3354 13.817 22.5662 11.9373C22.863 9.43116 24.4129 7.38664 25.8968 5.3751C26.9191 4.02308 27.9413 2.63808 28.6009 1.12118C28.6338 1.02225 28.7328 0.956299 28.8317 0.956299C28.9306 0.956299 29.0295 0.989275 29.0625 1.0882L32.7229 6.82604C33.7451 8.4089 34.7674 10.0577 35.1961 11.9373C35.4599 13.0585 35.361 15.3009 34.0089 17.0157C32.8548 18.4996 31.0741 19.258 28.7657 19.258ZM28.8976 1.81368C28.2051 3.19867 27.2488 4.48474 26.3255 5.70486C24.8086 7.7164 23.3906 9.62901 23.0938 12.0033C22.896 13.6851 23.3577 15.4658 24.3799 16.7189C25.4022 17.972 27.051 18.7304 28.7657 18.7304C30.9422 18.7304 32.558 18.0709 33.6132 16.7518C34.8333 15.202 34.9323 13.1245 34.7014 12.1352C34.2727 10.3215 33.2505 8.73866 32.2942 7.18878L28.8976 1.81368Z" fill="#1F1F1F"/>
<path d="M28.6007 24.6661C28.5677 24.6661 28.5677 24.6661 28.6007 24.6661C28.4358 24.6661 28.3369 24.5342 28.3369 24.4023C28.5677 19.0602 28.6667 13.6521 28.6007 8.30995C28.6007 8.17805 28.7326 8.04614 28.8645 8.04614C28.9964 8.04614 29.1283 8.17805 29.1283 8.30995C29.1613 13.6521 29.0624 19.0931 28.8645 24.4353C28.8316 24.5672 28.7326 24.6661 28.6007 24.6661Z" fill="#1F1F1F"/>
<path d="M28.9307 15.7625H28.8977C28.8647 15.7296 28.8318 15.6966 28.8647 15.6636C29.5243 14.0808 30.8103 12.7617 32.3602 12.0362C32.3932 12.0033 32.4591 12.0362 32.4921 12.0692C32.5251 12.1022 32.4921 12.1681 32.4591 12.2011C30.9422 12.9266 29.6891 14.2127 29.0296 15.7625C28.9966 15.7296 28.9637 15.7625 28.9307 15.7625Z" fill="#1F1F1F"/>
<path d="M28.8645 12.9596C28.8316 12.9596 28.7986 12.9596 28.7986 12.9266C28.3699 12.2671 27.9412 11.5746 27.2817 11.047C26.9849 10.8162 26.6551 10.6513 26.3254 10.4864L25.501 10.0247C25.468 9.99176 25.435 9.95878 25.468 9.89283C25.501 9.85985 25.534 9.82687 25.5999 9.85985L26.4243 10.3215C26.7541 10.4864 27.0838 10.6843 27.4136 10.9151C28.1061 11.4427 28.5678 12.1682 28.9635 12.8277C28.9964 12.8607 28.9635 12.9266 28.9305 12.9596C28.8975 12.9596 28.8645 12.9596 28.8645 12.9596Z" fill="#1F1F1F"/>
</svg>
