<svg width="66" height="66" viewBox="0 0 66 66" fill="none" xmlns="http://www.w3.org/2000/svg">
<path d="M25.8081 7.12776C25.5904 7.12776 25.3728 6.96453 25.3728 6.69248C25.3728 6.47484 25.536 6.25719 25.8081 6.25719C26.5698 6.20278 27.2228 6.14837 27.8213 6.14837C28.4742 6.09396 29.1271 6.03955 29.8889 6.03955C30.1065 6.03955 30.3242 6.20278 30.3242 6.47483C30.3242 6.69248 30.1609 6.91012 29.8889 6.91012C29.1271 6.96453 28.4742 7.01894 27.8213 7.01894C27.2228 7.01894 26.5698 7.07335 25.8081 7.12776Z" fill="#1F1F1F"/>
<path d="M32.283 4.95136C32.0653 4.95136 31.8477 4.78813 31.8477 4.57049L31.5756 0.435284C31.5756 0.217642 31.7389 0 31.9565 0C32.1741 0 32.3918 0.163232 32.3918 0.380874L32.6638 4.51608C32.7182 4.73372 32.555 4.95136 32.283 4.95136Z" fill="#1F1F1F"/>
<path d="M37.3975 6.85574H34.1873C33.9697 6.85574 33.752 6.63809 33.752 6.42045C33.752 6.20281 33.9697 5.98517 34.1873 5.98517H37.3975C37.6152 5.98517 37.8328 6.20281 37.8328 6.42045C37.8328 6.69251 37.6152 6.85574 37.3975 6.85574Z" fill="#1F1F1F"/>
<path d="M32.2829 13.2762C32.0109 13.2762 31.8476 13.0585 31.8476 12.7865C31.9564 11.4806 31.9564 10.1748 31.8476 8.92335C31.8476 8.70571 32.0109 8.48807 32.2285 8.43365C32.4461 8.43365 32.6638 8.59689 32.7182 8.81453C32.827 10.1748 32.827 11.4806 32.7182 12.8409C32.7182 13.113 32.5006 13.2762 32.2829 13.2762Z" fill="#1F1F1F"/>
<path d="M16.3951 23.5597C16.2862 22.5259 16.1774 21.4921 16.3951 20.4583C16.6127 19.4245 17.2656 18.4451 18.245 18.0643C18.7891 17.8466 20.9111 17.8466 22.9787 17.8466C24.1758 17.8466 25.3184 18.826 25.6449 20.3495C25.9169 21.6009 25.536 23.8862 25.536 23.8862C25.536 23.8862 19.17 25.4641 16.3951 23.5597Z" fill="white"/>
<path d="M20.4759 24.92C18.898 24.92 17.2656 24.7024 16.123 23.8862C16.0142 23.8318 15.9598 23.723 15.9598 23.5597C15.851 22.5803 15.6877 21.4377 15.9598 20.2951C16.2318 18.9893 17.048 18.0099 18.0818 17.5746C18.6803 17.3569 20.3126 17.3569 22.9788 17.3569C24.3934 17.3569 25.6993 18.554 26.0802 20.1863C26.3522 21.4921 25.9713 23.7774 25.9713 23.8862C25.9169 24.0494 25.8081 24.2127 25.6449 24.2127C25.4272 24.3215 23.0332 24.92 20.4759 24.92ZM16.8304 23.2877C19.1156 24.7024 23.9581 23.7774 25.1552 23.5053C25.264 22.8524 25.4272 21.3289 25.264 20.4583C24.9919 19.2069 24.067 18.3363 23.0332 18.3363C21.1832 18.3363 18.9524 18.3363 18.4627 18.4996C17.5377 18.826 17.048 19.8054 16.8848 20.5672C16.6127 21.4377 16.7215 22.3627 16.8304 23.2877Z" fill="#1F1F1F"/>
<path d="M27.2771 65.3471C23.686 65.6191 19.9861 65.6736 16.2862 65.5103C13.8377 65.4015 11.7701 64.0412 10.6819 62.3001C9.59372 60.5045 9.04961 58.4914 8.72315 56.5326C7.85258 50.9827 8.66874 45.1064 12.151 40.2638C13.1848 38.7947 14.4907 37.108 13.6745 35.5845C13.348 34.986 12.7495 34.5507 12.2054 34.0066C10.5187 32.3199 10.029 29.8714 11.0084 27.8582C12.0966 25.6818 16.4494 23.7774 16.4494 23.7774L25.5904 23.723C25.5904 23.723 27.0051 24.1583 27.6036 24.4848C30.6506 26.0627 32.0653 28.3479 31.3579 31.2317C30.9771 32.864 30.1065 33.7346 29.3447 34.4419C27.4948 36.2374 28.4742 37.5433 29.2359 38.6315C30.3241 40.2094 31.8476 41.7329 32.6094 45.7593C33.6976 51.69 34.4593 58.3825 31.0315 63.4971C30.3785 64.5309 29.3992 65.1839 27.2771 65.3471Z" fill="white"/>
<path d="M20.8567 66C19.3876 66 17.8641 65.9456 16.2862 65.8912C13.8378 65.7824 11.5525 64.4765 10.3555 62.4633C9.3761 60.831 8.72317 58.9266 8.3423 56.5326C7.63496 52.1253 7.68937 45.7049 11.8246 39.9373L11.9878 39.7197C12.9672 38.3594 14.001 36.9448 13.2937 35.7477C13.076 35.3669 12.7496 35.0404 12.3687 34.7139C12.2054 34.5507 12.0422 34.4419 11.9334 34.2786C10.0834 32.4287 9.59374 29.817 10.682 27.5861C11.8246 25.3009 16.1774 23.3965 16.3406 23.2877C16.3951 23.2877 16.4495 23.2333 16.5039 23.2333L25.6448 23.1789C25.6993 23.1789 25.7537 23.1789 25.8081 23.1789C25.8625 23.1789 27.2772 23.6686 27.8757 23.9951C31.1947 25.7362 32.6094 28.2935 31.8477 31.2317C31.4124 32.9184 30.5962 33.8434 29.7256 34.6595C28.2021 36.1286 28.8551 37.108 29.6168 38.1962L29.6712 38.305C29.8345 38.5771 30.0521 38.8491 30.2153 39.1212C31.1947 40.4814 32.4462 42.1682 33.0991 45.6504C34.2417 52.0165 34.8402 58.6002 31.4124 63.7148C30.5418 65.0206 29.3448 65.6191 27.3316 65.7824C25.264 65.9456 23.0876 66 20.8567 66ZM16.5583 24.1583C15.9598 24.4303 12.3143 26.1171 11.3893 27.967C10.4643 29.817 10.8996 32.0478 12.4775 33.6257C12.5863 33.7345 12.7496 33.8978 12.9128 34.0066C13.3481 34.3875 13.7289 34.7683 14.001 35.258C14.926 36.9448 13.6745 38.7403 12.6407 40.155L12.4775 40.3726C8.50553 45.9225 8.45112 52.1253 9.15845 56.3149C9.53933 58.6002 10.1378 60.4501 11.0628 61.9192C12.151 63.6603 14.1642 64.8574 16.2862 64.9118C20.095 65.075 23.7949 65.075 27.2228 64.7486C29.3992 64.5853 30.1609 63.8236 30.6506 63.0618C33.9153 58.1649 33.3167 51.7988 32.1741 45.596C31.5756 42.3314 30.433 40.8079 29.4536 39.4476C29.2359 39.1756 29.0727 38.9035 28.8551 38.6315L28.8007 38.5227C28.0389 37.38 26.9507 35.8021 29.0183 33.8434C29.7801 33.0816 30.5418 32.2655 30.8683 30.8508C31.6844 27.6406 29.3992 25.6818 27.3316 24.5936C26.8419 24.3215 25.7537 23.9406 25.4816 23.8862L16.5583 24.1583Z" fill="#1F1F1F"/>
<path d="M11.879 45.1608C11.8246 45.1608 11.7158 45.1064 11.7158 44.9975C11.7158 44.9431 11.7702 44.8343 11.879 44.8343L30.1065 44.5623C30.2153 44.5623 30.2698 44.6167 30.2698 44.7255C30.2698 44.7799 30.2153 44.8887 30.1065 44.8887L11.879 45.1608Z" fill="#1F1F1F"/>
<path d="M11.8245 59.906C11.7701 59.906 11.6613 59.8516 11.6613 59.7428C11.6613 59.6884 11.7157 59.5795 11.8245 59.5795C18.4082 59.2531 25.0463 59.1442 31.63 59.3619C31.6844 59.3619 31.7932 59.4163 31.7932 59.5251C31.7932 59.5795 31.7388 59.6883 31.63 59.6883C25.0463 59.4707 18.3538 59.5251 11.8245 59.906Z" fill="#1F1F1F"/>
<path d="M11.6613 47.1195C11.6069 47.1195 11.4981 47.0651 11.4981 46.9563C11.4981 46.9019 11.5525 46.7931 11.6613 46.7931C13.0216 46.7387 14.4363 46.7387 15.8509 46.7931C15.9054 46.7931 16.0142 46.8475 16.0142 46.9563C16.0142 47.0107 15.9598 47.1195 15.8509 47.1195C14.4363 47.0651 13.0216 47.0651 11.6613 47.1195Z" fill="#1F1F1F"/>
<path d="M47.4635 31.3404C44.5797 31.3404 41.7504 30.089 39.9004 27.8582C38.1049 25.6273 37.2887 22.6348 37.6696 19.751C38.4858 12.9497 44.9062 8.32478 47.6267 2.06757C49.6399 5.22338 51.6531 8.37919 53.6663 11.535C55.353 14.1467 57.0398 16.8128 57.6927 19.8598C58.3456 22.9068 57.3662 31.3404 47.4635 31.3404Z" fill="#EB5757"/>
<path d="M47.4635 31.7757C44.3621 31.7757 41.4239 30.4155 39.5739 28.1302C37.724 25.845 36.8534 22.798 37.2343 19.6966C37.724 15.5614 40.2813 12.1879 42.7298 8.8689C44.4165 6.63806 46.1032 4.35282 47.1914 1.84993C47.2458 1.6867 47.4091 1.57788 47.5723 1.57788C47.7355 1.57788 47.8988 1.63229 47.9532 1.79552L53.9927 11.263C55.6795 13.8747 57.3662 16.5952 58.0735 19.6966C58.5088 21.5466 58.3456 25.2465 56.1147 28.0758C54.2104 30.5243 51.2722 31.7757 47.4635 31.7757ZM47.6811 2.99256C46.5385 5.2778 44.9606 7.39981 43.4371 9.413C40.9342 12.732 38.5946 15.8879 38.1049 19.8054C37.7784 22.5804 38.5401 25.5185 40.2269 27.5861C41.9136 29.6537 44.6341 30.9052 47.4635 30.9052C51.0546 30.9052 53.7207 29.817 55.4618 27.6405C57.475 25.0832 57.6382 21.6554 57.2574 20.0231C56.55 17.0305 54.8633 14.4188 53.2854 11.8615L47.6811 2.99256Z" fill="#1F1F1F"/>
<path d="M47.1914 40.6991C47.137 40.6991 47.137 40.6991 47.1914 40.6991C46.9194 40.6991 46.7561 40.4815 46.7561 40.2638C47.137 31.4493 47.3002 22.526 47.1914 13.7115C47.1914 13.4938 47.4091 13.2762 47.6267 13.2762C47.8443 13.2762 48.062 13.4938 48.062 13.7115C48.1164 22.526 47.9532 31.5037 47.6267 40.3182C47.5723 40.5359 47.4091 40.6991 47.1914 40.6991Z" fill="#1F1F1F"/>
<path d="M47.7355 26.0082H47.6811C47.6267 25.9538 47.5723 25.8994 47.6267 25.845C48.7149 23.2333 50.8369 21.0568 53.3942 19.8598C53.4486 19.8054 53.5575 19.8598 53.6119 19.9142C53.6663 19.9686 53.6119 20.0775 53.5575 20.1319C51.0546 21.3289 48.987 23.4509 47.8988 26.0082C47.8444 25.9538 47.79 26.0082 47.7355 26.0082Z" fill="#1F1F1F"/>
<path d="M47.6267 21.3833C47.5723 21.3833 47.5179 21.3833 47.5179 21.3289C46.8106 20.2407 46.1032 19.0981 45.015 18.2275C44.5253 17.8467 43.9812 17.5746 43.4371 17.3026L42.0769 16.5408C42.0224 16.4864 41.968 16.432 42.0224 16.3232C42.0769 16.2688 42.1313 16.2143 42.2401 16.2688L43.6003 17.0305C44.1445 17.3026 44.6886 17.629 45.2327 18.0099C46.3753 18.8805 47.137 20.0775 47.79 21.1657C47.8444 21.2201 47.79 21.3289 47.7356 21.3833C47.6811 21.3833 47.6267 21.3833 47.6267 21.3833Z" fill="#1F1F1F"/>
</svg>
