<svg width="40" height="41" viewBox="0 0 40 41" fill="none" xmlns="http://www.w3.org/2000/svg">
<path d="M8.61162 18.2876C6.79014 17.0125 5.73369 15.8104 5.51511 13.5882C5.40582 12.3495 5.80656 11.0745 6.35301 9.94519C7.51875 7.57727 9.41308 5.53722 11.8539 4.59005C14.2946 3.64288 16.5533 3.27858 18.6298 4.88148C20.8884 6.59367 21.8356 9.50804 23.4385 11.876C25.2964 14.5718 27.9922 16.5754 30.688 18.3604C31.8173 19.089 33.493 20.2183 34.2945 21.3112C35.8974 23.4606 35.7517 26.6299 34.3309 28.8521C29.7772 36.0288 24.0213 34.9723 21.1434 31.6208C19.9777 30.2729 18.484 26.0471 16.4804 23.6427C12.8375 19.3805 10.3967 19.5626 8.61162 18.2876Z" fill="white"/>
<path d="M26.5349 34.5352C24.4584 34.5352 22.4184 33.588 20.9612 31.8394C20.4512 31.2201 19.8683 30.1272 19.249 28.8157C18.4111 27.1035 17.4275 25.2092 16.2982 23.8613C13.7846 20.9105 11.8902 20.1455 10.3238 19.4898C9.6316 19.1983 9.01229 18.9433 8.42942 18.5426C6.60794 17.2311 5.4422 15.9561 5.22362 13.6246C5.11433 12.4588 5.40576 11.2567 6.0615 9.83592C7.3001 7.28585 9.37659 5.28222 11.7081 4.33505C13.7481 3.5336 16.4075 2.84144 18.7754 4.66292C20.3419 5.8651 21.3255 7.61372 22.2362 9.32591C22.6734 10.1274 23.147 10.9652 23.657 11.7303C25.5513 14.4989 28.3564 16.5025 30.8336 18.1419C31.9629 18.9069 33.6751 20.0362 34.513 21.1655C36.1159 23.2784 36.1159 26.5935 34.5494 29.0343C31.8172 33.333 28.9028 34.3894 26.9721 34.5352C26.8628 34.4987 26.7171 34.5352 26.5349 34.5352ZM15.4239 4.08005C14.4039 4.08005 13.2746 4.33505 11.9267 4.8815C9.70447 5.75581 7.77369 7.65015 6.57152 10.0909C5.95222 11.4024 5.6972 12.5317 5.77006 13.5517C5.95221 15.6646 7.00868 16.8304 8.72087 18.069C9.23089 18.4333 9.85017 18.6883 10.5059 18.9797C12.1088 19.6355 14.076 20.4734 16.6989 23.497C17.8647 24.8813 18.8483 26.8485 19.7226 28.5607C20.3419 29.8358 20.8883 30.8922 21.3619 31.4751C22.8191 33.1873 24.8592 34.098 26.9357 33.9523C28.7571 33.843 31.4893 32.823 34.0758 28.7429C35.4966 26.4842 35.4966 23.4606 34.0394 21.5298C33.238 20.4734 31.5258 19.344 30.5057 18.6519C27.9921 16.9761 25.1142 14.9725 23.1834 12.0946C22.6369 11.3295 22.1998 10.4552 21.7262 9.65377C20.779 7.94158 19.8683 6.30225 18.4111 5.17294C17.5368 4.44434 16.5896 4.08005 15.4239 4.08005Z" fill="#1F1F1F"/>
<path d="M26.4621 4.77229C26.3164 4.77229 26.1707 4.663 26.1707 4.48085C26.1707 4.33514 26.2799 4.18942 26.4621 4.18942C26.9721 4.15299 27.4093 4.11656 27.81 4.11656C28.2471 4.08013 28.6843 4.0437 29.1943 4.0437C29.34 4.0437 29.4858 4.15299 29.4858 4.33514C29.4858 4.48085 29.3765 4.62657 29.1943 4.62657C28.6843 4.663 28.2471 4.69943 27.81 4.69943C27.4457 4.69943 27.0085 4.73586 26.4621 4.77229Z" fill="#1F1F1F"/>
<path d="M30.7973 3.31509C30.6516 3.31509 30.5059 3.2058 30.5059 3.06008L30.3237 0.291436C30.3237 0.145718 30.433 0 30.5787 0C30.7245 0 30.8702 0.109289 30.8702 0.255007L31.0523 3.02365C31.1252 3.16937 30.9795 3.31509 30.7973 3.31509C30.8337 3.31509 30.8337 3.31509 30.7973 3.31509Z" fill="white"/>
<path d="M34.2215 4.59008H32.0722C31.9265 4.59008 31.7808 4.44436 31.7808 4.29864C31.7808 4.15292 31.9265 4.0072 32.0722 4.0072H34.2215C34.3673 4.0072 34.513 4.15292 34.513 4.29864C34.513 4.48079 34.3673 4.59008 34.2215 4.59008Z" fill="#1F1F1F"/>
<path d="M30.7973 8.88884C30.6151 8.88884 30.5059 8.74312 30.5059 8.56097C30.5787 7.68666 30.5787 6.81235 30.5059 5.97447C30.5059 5.82875 30.6152 5.68304 30.7609 5.64661C30.9066 5.64661 31.0523 5.7559 31.0887 5.90162C31.1616 6.81235 31.1616 7.68666 31.0887 8.5974C31.0887 8.77955 30.943 8.88884 30.7973 8.88884Z" fill="#1F1F1F"/>
<path d="M34.5495 13.0782C34.4038 13.0782 34.2581 12.9689 34.2581 12.7868C34.2581 12.641 34.3673 12.4953 34.5495 12.4953C34.8774 12.4953 35.0959 12.4589 35.3145 12.4225C35.5331 12.386 35.7881 12.386 36.116 12.3496C36.2981 12.3496 36.4074 12.4589 36.4074 12.641C36.4074 12.7868 36.2981 12.9325 36.116 12.9325C35.7881 12.9325 35.5331 12.9689 35.3145 13.0053C35.1324 13.0418 34.9138 13.0782 34.5495 13.0782Z" fill="#1F1F1F"/>
<path d="M37.4638 11.6939C37.3181 11.6939 37.1723 11.5846 37.1723 11.4025C37.1359 11.0746 37.1359 10.7832 37.0995 10.4917C37.063 10.2003 37.063 9.90885 37.0266 9.58099C37.0266 9.43527 37.1359 9.28955 37.2816 9.28955C37.4273 9.28955 37.5731 9.39884 37.5731 9.54456C37.6095 9.87243 37.6095 10.1639 37.6459 10.4553C37.6824 10.7467 37.6824 11.0382 37.7188 11.366C37.7552 11.5482 37.6459 11.6939 37.4638 11.6939Z" fill="#1F1F1F"/>
<path d="M38.8118 12.969C38.739 12.969 38.6297 12.969 38.5568 12.969C38.4111 12.969 38.2654 12.8233 38.2654 12.6775C38.2654 12.5318 38.4111 12.3861 38.5568 12.3861C38.7754 12.3861 38.9575 12.3861 39.1033 12.3861C39.249 12.3861 39.3947 12.3861 39.6497 12.3861C39.7954 12.3861 39.9411 12.5318 39.9411 12.6775C39.9411 12.8233 39.7954 12.969 39.6497 12.969C39.4311 12.969 39.2854 12.969 39.1033 12.969C39.0304 12.969 38.9211 12.969 38.8118 12.969Z" fill="#1F1F1F"/>
<path d="M37.391 16.0291C37.2089 16.0291 37.0996 15.8834 37.0996 15.7012C37.136 15.0819 37.136 14.7176 37.0996 14.0619C37.0996 13.9162 37.2089 13.7704 37.3546 13.734C37.5368 13.734 37.6461 13.8433 37.6825 13.989C37.7189 14.6447 37.7189 15.0819 37.6825 15.7012C37.6825 15.9198 37.5368 16.0291 37.391 16.0291Z" fill="#1F1F1F"/>
<path d="M0.269287 32.2402C3.76653 29.508 6.5716 27.1037 7.37305 24.6629C8.79381 20.2549 8.7938 20.2185 9.77739 19.0163C11.2346 19.2713 12.9832 20.4735 12.9832 20.4735C12.9832 20.4735 13.2382 20.6556 14.6954 19.2713C16.5533 17.4863 18.7755 14.6447 19.832 14.0254C20.1963 13.8069 20.9613 13.4426 21.3256 13.6611C21.8356 13.989 21.362 15.0819 21.1434 15.3733C19.7955 17.2677 15.8611 21.6028 15.8611 21.6028L17.0998 20.9106C17.0998 20.9106 19.0669 19.7085 22.2727 15.8834C23.0742 14.9362 23.6935 14.9726 23.9849 15.1183C24.4949 15.4098 24.0578 16.5027 23.7299 17.0127C22.127 19.5627 18.8484 22.1492 18.0105 23.4971C18.4841 23.4971 19.4312 22.7685 19.832 22.4407C20.9977 21.4206 22.7828 19.4535 23.9485 18.4334C24.4221 18.0327 25.26 17.7413 25.6971 18.1784C26.1707 18.6884 25.3328 19.5627 24.75 20.3642C23.0013 22.6957 19.7227 25.1 19.9048 25.61C22.0906 25.7922 25.1507 20.3278 26.2071 22.2221C26.4986 22.7321 24.8592 24.2622 24.1307 25.1365C21.4349 28.3787 16.8083 32.8595 13.7118 33.7703C11.3803 34.4624 6.79017 39.854 6.79017 39.854C6.79017 39.854 5.98872 39.344 1.94504 34.5353C1.21645 33.8067 0.524294 32.896 0.269287 32.2402Z" fill="#6FCF97"/>
<path d="M6.71734 40.1818C6.64448 40.1818 6.60804 40.1818 6.57161 40.1454C6.53518 40.109 5.69729 39.5625 1.69004 34.7538C0.815732 33.7338 0.269298 32.8959 0.0142907 32.3495C-0.0221389 32.2402 0.0142952 32.0945 0.0871543 32.0216C3.32939 29.508 6.28018 27.0308 7.08163 24.59L7.22734 24.1164C8.50237 20.1456 8.5388 20.0363 9.5224 18.8341C9.59526 18.7613 9.70456 18.7248 9.81385 18.7248C11.1617 18.9798 12.6918 19.927 13.0561 20.182C13.1654 20.1456 13.5661 19.927 14.4768 19.0527C15.2054 18.3241 16.0069 17.4498 16.7719 16.6119C17.9376 15.3004 18.9577 14.1711 19.6498 13.7704C20.1234 13.5154 20.9613 13.1147 21.4349 13.4425C21.617 13.5518 21.7263 13.734 21.7627 13.989C21.872 14.5719 21.5077 15.3369 21.2892 15.5919C20.4149 16.7941 18.4841 19.0163 17.209 20.4734C17.9012 19.9634 19.6134 18.5427 21.9449 15.774C22.7828 14.754 23.5842 14.7176 24.0214 14.9726C24.2035 15.0819 24.3128 15.2276 24.3492 15.4462C24.495 16.029 24.0942 16.9033 23.8757 17.2676C22.9285 18.7977 21.3984 20.3277 20.1598 21.5663C19.7227 22.0035 19.322 22.4042 18.9577 22.7685C19.1398 22.6228 19.3584 22.4771 19.5405 22.3313C20.1234 21.8213 20.852 21.0563 21.5806 20.3277C22.3092 19.5991 23.0742 18.8341 23.6571 18.2877C24.2764 17.7412 25.2964 17.5226 25.8064 18.0691C26.3893 18.6884 25.7336 19.5263 25.1507 20.2913C25.0414 20.4006 24.9685 20.5099 24.8957 20.6556C24.0214 21.8578 22.7463 23.0599 21.6899 24.0071C21.1799 24.4807 20.6334 25.0271 20.3056 25.355C21.107 25.1 22.0906 24.1893 22.9285 23.3878C23.985 22.4042 24.8592 21.5299 25.6243 21.6392C25.9157 21.6756 26.1707 21.8578 26.3529 22.1856C26.6443 22.7321 25.9886 23.5335 24.8593 24.7721C24.6407 25.0271 24.4221 25.2457 24.2764 25.4279C21.9449 28.1965 17.1362 33.1509 13.7118 34.1345C11.4896 34.7903 6.97234 40.0725 6.93591 40.109C6.89948 40.1454 6.7902 40.1818 6.71734 40.1818ZM0.633598 32.313C0.888605 32.8231 1.39861 33.5152 2.1272 34.3895C5.078 37.9232 6.28018 39.1254 6.71734 39.4897C7.62808 38.4332 11.4532 34.171 13.6025 33.5517C16.4804 32.7138 20.9249 28.5608 23.8757 25.0271C24.0578 24.8086 24.2764 24.59 24.495 24.335C24.9685 23.825 25.9886 22.6956 25.9157 22.4406C25.8064 22.2585 25.6971 22.2221 25.6243 22.1856C25.1507 22.1128 24.2035 22.9871 23.4021 23.7521C22.1999 24.8814 20.9977 26.0472 19.832 25.9379C19.7227 25.9379 19.6134 25.865 19.577 25.7557C19.4313 25.355 19.9048 24.8814 21.3256 23.5335C22.3456 22.5864 23.5842 21.4206 24.4585 20.2549C24.5314 20.1456 24.6407 19.9999 24.75 19.8906C25.1507 19.3441 25.6971 18.6884 25.4421 18.4334C25.1507 18.142 24.4585 18.397 24.0942 18.6884C23.5114 19.1984 22.7828 19.9634 22.0542 20.692C21.3256 21.4206 20.5606 22.1856 19.9777 22.7321C19.6498 22.9871 18.5934 23.8614 17.9741 23.8614C17.8648 23.8614 17.7555 23.7885 17.719 23.7157C17.6826 23.6064 17.6826 23.4971 17.719 23.4242C18.0833 22.8414 18.8848 22.0399 19.7955 21.1292C20.9977 19.927 22.5278 18.397 23.4385 16.9398C23.6935 16.539 23.9121 15.8833 23.8392 15.5555C23.8028 15.4826 23.8028 15.4462 23.7664 15.4462C23.6207 15.3733 23.1471 15.3369 22.4549 16.1383C19.2491 19.927 17.2819 21.1656 17.209 21.202L15.934 21.8942C15.8247 21.9671 15.6426 21.9306 15.5697 21.8213C15.4969 21.712 15.4969 21.5663 15.5697 21.457C15.6061 21.4206 19.5041 17.0855 20.852 15.2276C20.9977 15.009 21.2892 14.4261 21.2163 14.0618C21.2163 13.9525 21.1434 13.9161 21.1434 13.9161C20.9977 13.8433 20.5241 13.9525 19.9777 14.2804C19.3948 14.6083 18.3384 15.774 17.2455 16.9762C16.4804 17.8505 15.679 18.7248 14.914 19.4534C13.4932 20.8377 13.0561 20.8377 12.8375 20.692C12.7282 20.6192 11.1982 19.5991 9.88669 19.3077C9.04881 20.2913 9.01239 20.4734 7.77378 24.2621L7.62808 24.7357C6.7902 27.3222 3.8394 29.7994 0.633598 32.313Z" fill="#1F1F1F"/>
<path d="M10.8704 21.9306C10.7246 21.9306 10.6154 21.8577 10.5789 21.712C10.5425 21.5663 10.6154 21.3841 10.7975 21.3477C11.6354 21.1291 12.4004 20.9105 12.9833 20.2184C13.0926 20.1091 13.2747 20.0727 13.384 20.182C13.4933 20.2912 13.5297 20.4734 13.4204 20.5827C12.7283 21.4206 11.7811 21.6756 10.9068 21.8941C10.9068 21.9306 10.9068 21.9306 10.8704 21.9306Z" fill="#1F1F1F"/>
<path d="M6.31669 36.6117C6.28026 36.6117 6.28025 36.6117 6.24382 36.5753L2.05442 31.9852C2.01799 31.9487 2.01799 31.8759 2.05442 31.8395C2.09085 31.803 2.16372 31.803 2.20015 31.8395L6.38955 36.4296C6.42598 36.466 6.42598 36.5389 6.38955 36.5753C6.35312 36.6117 6.31669 36.6117 6.31669 36.6117Z" fill="#1F1F1F"/>
<path d="M16.6261 7.83237C16.5897 7.83237 16.5533 7.83237 16.5533 7.79594C16.2254 7.2495 15.7883 6.77591 15.3147 6.37519C15.2782 6.33876 15.2782 6.2659 15.3147 6.22947C15.3511 6.19304 15.424 6.19304 15.4604 6.22947C15.9704 6.66663 16.4076 7.14021 16.7354 7.68665C16.7719 7.72308 16.7354 7.79594 16.699 7.83237C16.6626 7.83237 16.6626 7.83237 16.6261 7.83237Z" fill="#1F1F1F"/>
<path d="M15.8247 8.561C15.7883 8.561 15.7883 8.561 15.7518 8.52457L15.3147 8.12385C15.2782 8.08742 15.2782 8.01456 15.3147 7.97813C15.3511 7.9417 15.424 7.9417 15.4604 7.97813L15.8975 8.41528C15.934 8.45171 15.934 8.52457 15.8975 8.561C15.8975 8.561 15.8611 8.561 15.8247 8.561Z" fill="#1F1F1F"/>
<path d="M14.6589 15.8468C14.6225 15.8468 14.6225 15.8468 14.586 15.8104L13.311 14.5353C13.2746 14.4989 13.2746 14.4261 13.311 14.3896C13.3474 14.3532 13.4203 14.3532 13.4567 14.3896L14.7318 15.6647C14.7682 15.7011 14.7682 15.774 14.7318 15.8104C14.7318 15.8468 14.6953 15.8468 14.6589 15.8468Z" fill="#1F1F1F"/>
<path d="M15.2053 14.1346C15.1689 14.1346 15.1689 14.1346 15.1324 14.0982L14.6953 13.6975C14.6589 13.661 14.6589 13.5882 14.6953 13.5517C14.7317 13.5153 14.8046 13.5153 14.841 13.5517L15.2782 13.9525C15.3146 13.9889 15.3146 14.0618 15.2782 14.0982C15.2782 14.1346 15.2417 14.1346 15.2053 14.1346Z" fill="#1F1F1F"/>
<path d="M33.056 24.0435C33.0196 24.0435 33.0196 24.0435 32.9832 24.0071C32.5096 23.4971 31.9995 23.0599 31.4531 22.6227C31.4167 22.5863 31.4167 22.5135 31.4531 22.477C31.4895 22.4406 31.5624 22.4406 31.5988 22.477C32.1453 22.9142 32.6553 23.3878 33.1289 23.8614C33.1653 23.8978 33.1653 23.9706 33.1289 24.0071C33.0924 24.0071 33.056 24.0435 33.056 24.0435Z" fill="#1F1F1F"/>
<path d="M30.87 24.7721C30.8336 24.7721 30.8336 24.7721 30.7972 24.7357C30.5422 24.5171 30.3236 24.2985 30.0686 24.0435C30.0322 24.0071 30.0322 23.9342 30.0686 23.8978C30.105 23.8614 30.1779 23.8614 30.2143 23.8978C30.4329 24.1528 30.6515 24.3714 30.9065 24.59C30.9429 24.6264 30.9429 24.6993 30.9065 24.7357C30.9429 24.7721 30.9065 24.7721 30.87 24.7721Z" fill="#1F1F1F"/>
<path d="M27.1179 30.3458C27.0815 30.3458 27.0815 30.3458 27.0451 30.3093L26.0979 29.3257C26.0614 29.2893 26.0614 29.2165 26.0979 29.18C26.1343 29.1436 26.2072 29.1436 26.2436 29.18L27.1908 30.1636C27.2272 30.2001 27.2272 30.2729 27.1908 30.3093C27.1908 30.3458 27.1544 30.3458 27.1179 30.3458Z" fill="#1F1F1F"/>
</svg>
