<svg width="66" height="66" viewBox="0 0 66 66" fill="none" xmlns="http://www.w3.org/2000/svg">
<path d="M21.7495 56.8179C21.3246 56.8179 20.8996 56.8179 20.414 56.7563C18.957 56.6331 17.9858 56.1401 17.3787 55.3389C16.286 53.9216 16.7717 51.888 17.8037 50.7171C18.4714 49.916 20.6568 49.2381 23.4492 48.437C24.4205 48.1289 25.2703 47.944 25.6346 47.7591C25.8774 47.6359 26.1809 47.7591 26.2416 48.0056C26.363 48.2521 26.2417 48.5602 25.9988 48.6219C25.5739 48.8067 24.724 49.0532 23.692 49.3613C21.9316 49.8543 19.0178 50.7171 18.4714 51.3333C17.6823 52.2577 17.3788 53.7983 18.1072 54.7227C18.5321 55.2773 19.3213 55.6471 20.4746 55.7703C23.0242 56.0168 25.5739 55.4006 28.0628 54.7843C28.5484 54.6611 29.034 54.5378 29.5197 54.4146C32.4942 53.6751 35.9545 53.1821 39.0504 54.5994C39.2932 54.7227 39.4146 55.0308 39.2932 55.2773C39.1718 55.5238 38.8682 55.6471 38.6254 55.5238C35.833 54.2297 32.5549 54.7227 29.7625 55.4006C29.2769 55.5238 28.7912 55.6471 28.3056 55.7703C26.2416 56.2633 23.9956 56.8179 21.7495 56.8179Z" fill="#1F1F1F"/>
<path d="M17.1966 53.3669C17.1359 53.3669 17.1359 53.3669 17.0752 53.3669C16.5288 53.2437 16.1646 53.182 15.8004 53.1204C13.6757 52.689 13.615 52.6274 10.3976 48.3753C9.85129 47.6358 9.24427 46.8347 8.45511 45.8487C6.69467 43.5686 4.50931 43.0756 3.53803 43.507C3.11309 43.6918 2.87026 44.0616 2.99167 44.5546C3.05238 44.8011 2.87022 45.0476 2.56669 45.1092C2.32387 45.1708 2.08111 44.986 2.02041 44.6778C1.899 43.7535 2.32387 42.9523 3.17374 42.5826C4.63066 41.9663 7.24097 42.7058 9.24423 45.2325C9.97269 46.2185 10.6405 47.0812 11.1868 47.7591C14.2828 51.8263 14.2828 51.8263 15.9825 52.1344C16.3468 52.196 16.7717 52.2577 17.318 52.4425C17.5608 52.5042 17.7429 52.7507 17.6822 53.0588C17.6215 53.182 17.4395 53.3669 17.1966 53.3669Z" fill="#1F1F1F"/>
<path d="M20.6568 50.2857C20.5961 50.2857 20.4746 50.2857 20.4139 50.2241C19.5641 49.6695 18.5321 49.3614 17.4394 48.93C15.4968 48.2521 13.3115 47.5126 11.6117 45.6023C11.1261 45.0476 10.7618 44.5546 10.4583 44.0616C9.79056 43.1373 9.18354 42.2745 7.60521 41.2269C7.36239 41.1037 7.30171 40.7955 7.48383 40.549C7.60524 40.3025 7.90875 40.2409 8.15157 40.4258C9.85131 41.5967 10.519 42.521 11.2475 43.507C11.551 43.9384 11.9153 44.4314 12.3402 44.9244C13.8578 46.6499 15.861 47.3278 17.7429 48.0056C18.8963 48.3754 19.989 48.8067 20.8996 49.3614C21.1424 49.4846 21.2031 49.7927 21.0817 50.0392C20.9603 50.1625 20.7782 50.2857 20.6568 50.2857Z" fill="#1F1F1F"/>
<path d="M62.8466 40.3025C62.8466 40.3025 50.2807 43.2605 47.8525 42.7675C44.3923 42.028 41.6606 41.2885 38.2004 42.3978C36.44 43.014 34.1939 44.4314 32.5548 45.4174C29.3375 47.3894 29.5803 47.0813 27.3949 47.8208C24.7239 47.0813 21.6887 46.1569 19.1998 44.6779C16.0431 42.7675 12.8865 40.549 11.9152 39.9944C9.42627 38.5154 8.7585 39.8712 7.72652 40.7339C6.45172 39.8712 3.17365 39.8095 3.47718 42.4594C3.53788 43.2605 2.50594 42.8908 2.38453 44.493C2.20242 47.2045 8.21219 53.4902 13.0686 57.3726C17.6822 59.7143 25.331 63.9048 31.8871 65.3838C34.9223 66.0617 47.2454 60.5154 54.955 57.7423C59.5078 56.1401 58.2937 57.311 61.6932 56.6331C63.3929 55.1541 62.8466 40.3025 62.8466 40.3025Z" fill="white"/>
<path d="M32.6156 66C32.3728 66 32.13 66 31.8872 65.9384C25.9988 64.5826 19.1391 61.07 14.5863 58.7283C13.9792 58.4202 13.4329 58.1737 12.9473 57.8656L12.8865 57.8039C8.27293 54.1065 1.83827 47.5126 2.02038 44.493C2.08109 43.3221 2.62743 42.9524 2.93096 42.7059C2.99166 42.6443 3.05232 42.5826 3.11303 42.5826C3.11303 42.5826 3.11303 42.5826 3.11303 42.521C2.99162 41.4734 3.35589 40.6723 4.14505 40.1793C5.17704 39.563 6.75536 39.6863 7.78735 40.1793C7.84805 40.1177 7.90871 40.056 7.96942 39.9944C8.81929 39.1933 9.85127 38.1457 12.2188 39.6247C12.583 39.8095 13.1901 40.2409 13.9792 40.7339C15.4361 41.7199 17.4394 43.0756 19.5033 44.2465C21.7494 45.6022 24.6633 46.5266 27.395 47.3277C27.8199 47.2045 28.1234 47.0812 28.3662 47.0196C29.3982 46.6499 29.8232 46.5266 32.2514 45.0476L32.5549 44.8628C34.1332 43.8768 36.2579 42.521 38.0183 41.9664C41.3571 40.8572 44.0281 41.4734 47.1241 42.1513L47.9133 42.3361C49.7951 42.7675 59.2043 40.6723 62.6645 39.8712C62.7859 39.8095 62.9681 39.8712 63.0895 39.9328C63.2109 39.9944 63.2716 40.1793 63.2716 40.3025C63.393 42.8291 63.7573 55.4006 62.1182 57.0644C62.0575 57.1261 61.9361 57.1877 61.8754 57.1877C60.4792 57.4342 59.8114 57.4342 59.2044 57.3726C58.4152 57.3109 57.8082 57.3109 55.1979 58.2353C53.0732 58.9748 50.5843 59.9608 47.974 61.0084C41.5392 63.5966 35.408 66 32.6156 66ZM13.4329 57.0644C13.9185 57.3109 14.4648 57.6191 15.0112 57.8656C19.5033 60.2073 26.3023 63.7199 32.0693 65.014C34.1333 65.507 41.2964 62.6107 47.6097 60.1457C50.2201 59.0981 52.709 58.1737 54.8336 57.3726C57.6261 56.3866 58.3545 56.3866 59.2651 56.4482C59.7507 56.4482 60.3578 56.5098 61.5112 56.3249C62.4218 54.9692 62.5431 46.8347 62.3003 40.9804C59.6293 41.5966 49.9165 43.7535 47.6704 43.3221L46.8812 43.1373C43.7853 42.4594 41.2964 41.9048 38.2612 42.9524C36.6221 43.507 34.5582 44.8011 33.0406 45.7255L32.737 45.9104C30.1874 47.5126 29.7018 47.6359 28.6091 48.0056C28.3056 48.1289 27.9414 48.1905 27.5164 48.3754C27.395 48.437 27.3343 48.437 27.2129 48.3754C24.3598 47.5742 21.3245 46.5882 18.8963 45.1709C16.8323 43.9384 14.8291 42.5826 13.3115 41.5966C12.5223 41.1036 11.9152 40.6723 11.6117 40.4874C9.85127 39.4398 9.30494 39.9944 8.51578 40.7339C8.33366 40.9188 8.21222 41.042 8.03011 41.2269C7.84799 41.3501 7.60523 41.3501 7.48382 41.2269C6.75536 40.7339 5.35912 40.549 4.56996 41.042C4.14502 41.3501 3.90219 41.7815 4.0236 42.4594C4.08431 43.0756 3.72006 43.3838 3.47724 43.5686C3.23442 43.7535 2.99166 43.9384 2.93096 44.6163C2.87025 46.8964 8.27294 52.874 13.4329 57.0644Z" fill="#1F1F1F"/>
<path d="M24.724 55.4622C23.0242 55.4622 21.6888 55.0308 20.6568 53.6751C19.5641 52.1961 20.2926 50.902 21.2031 49.7927C21.8709 48.9916 24.0562 48.3137 26.8486 47.5126C27.8199 47.2045 28.6699 47.0196 29.0341 46.8347C29.2769 46.7115 29.5804 46.8347 29.6411 47.0812C29.7625 47.3277 29.6411 47.6359 29.3983 47.6975C28.9734 47.8824 28.1235 48.1288 27.0915 48.437C25.331 48.93 22.4172 49.7927 21.8709 50.409C20.8996 51.5798 20.7782 52.2577 21.3245 53.0588C22.8421 55.0308 25.3311 54.5994 29.1555 53.8599C31.5837 53.4286 34.5582 52.8739 37.9577 52.8739C38.2005 52.8739 38.4433 53.1204 38.4433 53.3669C38.4433 53.6134 38.2005 53.8599 37.9577 53.8599C34.6189 53.8599 31.8265 54.3529 29.3376 54.8459C27.6986 55.2157 26.1202 55.4622 24.724 55.4622Z" fill="#1F1F1F"/>
<path d="M21.9315 54.7227C21.8708 54.7227 21.8101 54.7227 21.7494 54.6611C17.1966 52.4426 13.0686 49.7311 9.79052 46.8347C9.6084 46.6499 9.3656 46.465 9.12278 46.2185C7.78727 44.986 5.29838 42.6443 3.59865 43.3221C3.35583 43.4454 3.0523 43.3221 2.9916 43.0756C2.87019 42.8292 2.99161 42.521 3.23443 42.4594C5.48051 41.535 8.15148 44.0616 9.79052 45.5406C10.0333 45.7871 10.2154 45.972 10.3976 46.0953C13.6149 48.93 17.6822 51.5799 22.1136 53.7367C22.3565 53.86 22.4779 54.1681 22.3565 54.4146C22.2958 54.6611 22.1136 54.7227 21.9315 54.7227Z" fill="#1F1F1F"/>
<path d="M21.9316 50.2857C21.8709 50.2857 21.8709 50.2857 21.8102 50.2857C18.1679 49.423 14.4041 46.4034 11.3689 44.0617C9.85127 42.8292 8.51582 41.7815 7.48384 41.2269C7.24102 41.1037 7.18028 40.7955 7.30169 40.549C7.4231 40.3025 7.72661 40.2409 7.96943 40.3642C9.06212 40.9804 10.3976 42.028 11.9759 43.2605C14.9505 45.6023 18.5928 48.4986 22.053 49.2997C22.2958 49.3614 22.4779 49.6079 22.4172 49.916C22.3565 50.1009 22.1744 50.2857 21.9316 50.2857Z" fill="#1F1F1F"/>
<path d="M15.254 12.0168C17.925 11.4006 20.2318 9.67509 21.6887 7.57985C23.1456 5.48461 23.9348 2.958 24.299 0.493011C24.6026 2.40338 25.0882 4.31374 25.756 6.16248C26.6665 8.81234 27.9414 10.846 31.7658 12.0168C27.395 14.3586 24.4812 18.7955 24.2384 23.4174C23.9348 20.9524 23.5706 18.3642 22.053 16.2689C20.6568 14.2353 18.1678 12.8796 15.254 12.0168Z" fill="#EB5757"/>
<path d="M24.2384 23.8487C23.9955 23.8487 23.8134 23.6639 23.7527 23.4174C23.4492 21.1373 23.1456 18.549 21.6887 16.5154C20.4746 14.7899 18.2286 13.4342 15.1326 12.5098C14.9505 12.4482 14.7684 12.2633 14.7684 12.0168C14.7684 11.7703 14.9505 11.5854 15.1326 11.5854C17.5001 11.0308 19.7462 9.4902 21.2638 7.33334C22.5386 5.4846 23.3884 3.26611 23.8134 0.431371C23.8741 0.184872 24.0562 0 24.299 0C24.5419 0 24.724 0.184872 24.7847 0.431371C25.0882 2.28011 25.5738 4.19047 26.1809 5.97759C27.0915 8.62745 28.3056 10.4146 31.8872 11.5238C32.0693 11.5854 32.1907 11.7703 32.2514 11.9552C32.2514 12.1401 32.1907 12.3249 32.0085 12.4482C27.8199 14.7283 24.9668 19.042 24.7239 23.4174C24.7239 23.6022 24.5419 23.7871 24.2384 23.8487ZM16.8323 12.0168C19.4426 13.0028 21.3245 14.2969 22.4779 15.8992C23.4492 17.2549 23.9955 18.7955 24.299 20.3361C25.2703 17.0084 27.5771 13.9888 30.6124 12.0784C27.4557 10.8459 26.1809 8.81233 25.2703 6.28571C24.9061 5.17647 24.5419 4.06723 24.299 2.89636C23.8134 4.80672 23.085 6.40896 22.053 7.82633C20.7175 9.7367 18.8356 11.2157 16.8323 12.0168Z" fill="#1F1F1F"/>
<path d="M32.3121 26.7451C34.2546 26.3754 35.8937 25.2045 36.9864 23.8487C38.0791 22.493 38.6254 20.8908 38.9289 19.2885C39.1717 20.521 39.536 21.7535 39.9609 22.9244C40.6287 24.6499 41.6 25.944 44.3317 26.6835C41.175 28.2241 38.9896 31.0588 38.8682 34.0168C38.6254 32.4146 38.3826 30.7507 37.2899 29.395C36.2579 28.2241 34.4367 27.3613 32.3121 26.7451Z" fill="#EB5757"/>
<path d="M38.8682 34.5714C38.6254 34.5714 38.4433 34.3865 38.3826 34.14C38.2004 32.661 37.9577 31.0588 36.9257 29.7647C36.0151 28.7171 34.4368 27.8543 32.1907 27.1764C31.9479 27.1148 31.8265 26.9299 31.8265 26.6834C31.8265 26.4369 32.0086 26.2521 32.1907 26.1905C33.8904 25.8207 35.5295 24.8347 36.6222 23.479C37.5328 22.3081 38.1398 20.8907 38.4433 19.1036C38.504 18.8571 38.6861 18.6722 38.9289 18.6722C39.1717 18.6722 39.3539 18.8571 39.4146 19.042C39.6574 20.2129 39.9609 21.4454 40.4465 22.6162C41.1143 24.2801 41.9642 25.3893 44.5138 26.1288C44.6959 26.1905 44.878 26.3753 44.878 26.5602C44.878 26.7451 44.7566 26.9299 44.5745 27.0532C41.5393 28.4706 39.536 31.182 39.3539 34.0168C39.3539 34.3865 39.1718 34.5714 38.8682 34.5714ZM33.9511 26.8067C35.6509 27.4229 36.865 28.2241 37.6541 29.2101C38.2612 29.9496 38.6861 30.8739 38.9289 31.7367C39.6574 29.8263 41.175 28.1008 43.1176 26.8683C40.9929 26.0056 40.143 24.7731 39.4753 23.1708C39.2325 22.5546 39.0503 22 38.8682 21.3837C38.504 22.493 38.0184 23.4173 37.3506 24.2185C36.5007 25.3277 35.2867 26.2521 33.9511 26.8067Z" fill="#1F1F1F"/>
<path d="M59.6293 54.2297C59.5079 54.2297 59.4472 54.1065 59.4472 54.0449C59.9328 51.5799 60.1149 49.1149 59.9328 46.6499C59.9328 46.5883 59.9935 46.465 60.0543 46.465C60.1757 46.465 60.2363 46.5266 60.2363 46.5883C60.3577 49.1149 60.2364 51.6415 59.7507 54.1065C59.7507 54.1681 59.69 54.2297 59.6293 54.2297Z" fill="#1F1F1F"/>
<path d="M57.0797 54.4146C57.019 54.4146 57.019 54.4146 57.0797 54.4146C56.9583 54.353 56.8976 54.2914 56.8976 54.1681C57.2011 53.3054 57.3225 52.4426 57.3225 51.5182C57.3225 51.4566 57.3832 51.3334 57.5046 51.3334C57.5653 51.3334 57.6867 51.395 57.6867 51.5182C57.6867 52.4426 57.5047 53.367 57.2618 54.2297C57.2011 54.353 57.1404 54.4146 57.0797 54.4146Z" fill="#1F1F1F"/>
</svg>
