<svg width="66" height="67" viewBox="0 0 66 67" fill="none" xmlns="http://www.w3.org/2000/svg">
<path d="M14.2092 30.1746C11.2038 28.0708 9.46063 26.0872 9.09998 22.4206C8.91965 20.3769 9.58088 18.2731 10.4825 16.4097C12.406 12.5026 15.5316 9.13653 19.5589 7.5737C23.5862 6.01088 27.3129 5.40979 30.7391 8.05457C34.4659 10.8797 36.0287 15.6884 38.6735 19.5955C41.7391 24.0435 46.1871 27.3495 50.6352 30.2948C52.4985 31.497 55.2635 33.3604 56.5859 35.1636C59.2307 38.71 58.9903 43.9395 56.646 47.6061C49.1325 59.4476 39.6353 57.7044 34.8867 52.1744C32.9632 49.9504 30.4987 42.9778 27.1927 39.0106C21.1819 31.9779 17.1546 32.2784 14.2092 30.1746Z" fill="white"/>
<path d="M43.7827 56.9831C40.3565 56.9831 36.9905 55.4203 34.5861 52.5351C33.7446 51.5132 32.7828 49.71 31.761 47.5461C30.3785 44.721 28.7556 41.5953 26.8922 39.3713C22.7447 34.5025 19.619 33.2402 17.0343 32.1582C15.8923 31.6773 14.8704 31.2566 13.9087 30.5954C10.9032 28.4315 8.97976 26.3277 8.61911 22.4807C8.43878 20.5572 8.91965 18.5736 10.0016 16.2294C12.0453 12.0218 15.4715 8.71579 19.3185 7.15296C22.6846 5.83057 27.0725 4.6885 30.9796 7.69394C33.5643 9.67753 35.1872 12.5628 36.6899 15.3879C37.4112 16.7103 38.1926 18.0928 39.0342 19.355C42.1598 23.9233 46.7882 27.2293 50.8756 29.9342C52.7389 31.1965 55.5641 33.0598 56.9466 34.9232C59.5914 38.4095 59.5914 43.8794 57.0067 47.9067C52.4985 54.9995 47.6898 56.7427 44.5041 56.9831C44.3237 56.923 44.0833 56.9831 43.7827 56.9831ZM25.4496 6.7322C23.7665 6.7322 21.9032 7.15296 19.6791 8.05459C16.0125 9.4972 12.8267 12.6229 10.8431 16.6502C9.82129 18.8141 9.40052 20.6774 9.52074 22.3605C9.82128 25.8468 11.5645 27.7703 14.3896 29.814C15.2311 30.4151 16.2529 30.8358 17.3349 31.3167C19.9797 32.3987 23.2255 33.7812 27.5534 38.7702C29.4769 41.0543 31.0998 44.3002 32.5424 47.1253C33.5642 49.2291 34.4659 50.9723 35.2473 51.934C37.6516 54.7591 41.0178 56.2618 44.444 56.0214C47.4494 55.8411 51.9576 54.158 56.2253 47.4258C58.5695 43.6991 58.5695 38.7101 56.1652 35.5243C54.8428 33.7812 52.0177 31.9178 50.3346 30.7757C46.1871 28.0107 41.4385 24.7047 38.2527 19.9561C37.3511 18.6938 36.6298 17.2512 35.8484 15.9288C34.2855 13.1037 32.7828 10.3988 30.3785 8.53547C28.9359 7.33329 27.373 6.7322 25.4496 6.7322Z" fill="#1F1F1F"/>
<path d="M43.6625 7.87423C43.4221 7.87423 43.1816 7.69391 43.1816 7.39336C43.1816 7.15293 43.362 6.91249 43.6625 6.91249C44.504 6.85238 45.2253 6.79227 45.8865 6.79227C46.6078 6.73217 47.3291 6.67206 48.1707 6.67206C48.4111 6.67206 48.6516 6.85238 48.6516 7.15293C48.6516 7.39336 48.4712 7.6338 48.1707 7.6338C47.3291 7.69391 46.6078 7.75401 45.8865 7.75401C45.2854 7.75401 44.5641 7.81412 43.6625 7.87423Z" fill="#1F1F1F"/>
<path d="M50.8155 5.4699C50.575 5.4699 50.3346 5.28957 50.3346 5.04914L50.0341 0.48087C50.0341 0.240435 50.2144 0 50.4548 0C50.6953 0 50.9357 0.180327 50.9357 0.420762L51.2362 4.98903C51.3565 5.22946 51.116 5.4699 50.8155 5.4699C50.8756 5.4699 50.8756 5.4699 50.8155 5.4699Z" fill="white"/>
<path d="M56.4657 7.57368H52.9193C52.6788 7.57368 52.4384 7.33325 52.4384 7.09281C52.4384 6.85238 52.6788 6.61194 52.9193 6.61194H56.4657C56.7061 6.61194 56.9466 6.85238 56.9466 7.09281C56.9466 7.39335 56.7061 7.57368 56.4657 7.57368Z" fill="#1F1F1F"/>
<path d="M50.8155 14.6665C50.5149 14.6665 50.3346 14.4261 50.3346 14.1255C50.4548 12.6829 50.4548 11.2403 50.3346 9.85781C50.3346 9.61738 50.5149 9.37694 50.7554 9.31683C50.9958 9.31683 51.2362 9.49716 51.2963 9.7376C51.4165 11.2403 51.4165 12.6829 51.2963 14.1856C51.2963 14.4862 51.0559 14.6665 50.8155 14.6665Z" fill="#1F1F1F"/>
<path d="M57.0067 21.5791C56.7663 21.5791 56.5258 21.3987 56.5258 21.0982C56.5258 20.8578 56.7062 20.6173 57.0067 20.6173C57.5477 20.6173 57.9084 20.5572 58.269 20.4971C58.6297 20.437 59.0504 20.437 59.5914 20.3769C59.8919 20.3769 60.0723 20.5572 60.0723 20.8578C60.0723 21.0982 59.8919 21.3386 59.5914 21.3386C59.0504 21.3386 58.6297 21.3987 58.269 21.4589C57.9685 21.519 57.6078 21.5791 57.0067 21.5791Z" fill="#1F1F1F"/>
<path d="M61.8154 19.2949C61.575 19.2949 61.3345 19.1146 61.3345 18.8141C61.2744 18.2731 61.2744 17.7922 61.2143 17.3114C61.1542 16.8305 61.1542 16.3496 61.0941 15.8086C61.0941 15.5682 61.2744 15.3278 61.5149 15.3278C61.7553 15.3278 61.9957 15.5081 61.9957 15.7485C62.0558 16.2895 62.0558 16.7704 62.1159 17.2512C62.1761 17.7321 62.1761 18.213 62.2362 18.754C62.2963 19.0545 62.1159 19.2949 61.8154 19.2949Z" fill="#1F1F1F"/>
<path d="M64.0394 21.3988C63.9192 21.3988 63.7389 21.3988 63.6187 21.3988C63.3782 21.3988 63.1378 21.1583 63.1378 20.9179C63.1378 20.6774 63.3782 20.437 63.6187 20.437C63.9793 20.437 64.2799 20.437 64.5203 20.437C64.7607 20.437 65.0012 20.437 65.4219 20.437C65.6624 20.437 65.9028 20.6774 65.9028 20.9179C65.9028 21.1583 65.6624 21.3988 65.4219 21.3988C65.0613 21.3988 64.8208 21.3988 64.5203 21.3988C64.4001 21.3988 64.2198 21.3988 64.0394 21.3988Z" fill="#1F1F1F"/>
<path d="M61.6952 26.4479C61.3946 26.4479 61.2143 26.2074 61.2143 25.9069C61.2744 24.885 61.2744 24.2839 61.2143 23.202C61.2143 22.9616 61.3947 22.7211 61.6351 22.661C61.9356 22.661 62.116 22.8413 62.1761 23.0818C62.2362 24.1637 62.2362 24.885 62.1761 25.9069C62.1761 26.2675 61.9356 26.4479 61.6952 26.4479Z" fill="#1F1F1F"/>
<path d="M0.444328 53.1963C6.21477 48.6881 10.8431 44.7209 12.1655 40.6936C14.5098 33.4205 14.5098 33.3604 16.1327 31.3768C18.5371 31.7975 21.4223 33.7811 21.4223 33.7811C21.4223 33.7811 21.843 34.0817 24.2474 31.7975C27.3129 28.8522 30.9796 24.1637 32.7228 23.1419C33.3238 22.7812 34.5861 22.1801 35.1872 22.5408C36.0287 23.0818 35.2473 24.885 34.8867 25.3659C32.6626 28.4915 26.1709 35.6445 26.1709 35.6445L28.2146 34.5024C28.2146 34.5024 31.4604 32.5188 36.75 26.2074C38.0724 24.6446 39.0943 24.7047 39.5751 24.9451C40.4167 25.426 39.6953 27.2293 39.1544 28.0708C36.5096 32.2784 31.0998 36.5461 29.7173 38.7701C30.4987 38.7701 32.0616 37.568 32.7228 37.027C34.6462 35.3439 37.5916 32.0981 39.515 30.415C40.2965 29.7538 41.6789 29.273 42.4002 29.9943C43.1817 30.8358 41.7992 32.2784 40.8374 33.6008C37.9522 37.4478 32.5424 41.4149 32.8429 42.2565C36.4495 42.557 41.4986 33.5407 43.2418 36.6663C43.7227 37.5079 41.0178 40.0324 39.8156 41.475C35.3675 46.8247 27.7337 54.2181 22.6244 55.7208C18.7775 56.8629 11.2038 65.759 11.2038 65.759C11.2038 65.759 9.88139 64.9175 3.20932 56.9831C2.00714 55.7809 0.86509 54.2782 0.444328 53.1963Z" fill="#EB5757"/>
<path d="M11.0836 66.3C10.9634 66.3 10.9033 66.3 10.8431 66.2399C10.783 66.1797 9.40052 65.2781 2.78855 57.3438C1.34594 55.6607 0.444326 54.2782 0.0235644 53.3766C-0.0365444 53.1963 0.0235717 52.9558 0.143789 52.8356C5.49347 48.6881 10.3623 44.6007 11.6847 40.5734L11.9251 39.792C14.0289 33.2401 14.089 33.0598 15.7119 31.0762C15.8322 30.956 16.0125 30.8959 16.1928 30.8959C18.4169 31.3167 20.9414 32.8795 21.5425 33.3002C21.7228 33.2401 22.384 32.8795 23.8868 31.4369C25.0889 30.2347 26.4113 28.7921 27.6736 27.4096C29.5971 25.2457 31.2801 23.3823 32.4222 22.7211C33.2036 22.3003 34.5861 21.6391 35.3675 22.1801C35.6681 22.3604 35.8484 22.661 35.9085 23.0818C36.0888 24.0435 35.4878 25.3058 35.1271 25.7265C33.6845 27.7101 30.4987 31.3768 28.3949 33.7811C29.537 32.9396 32.3621 30.5954 36.2091 26.0271C37.5916 24.344 38.914 24.2839 39.6353 24.7047C39.9358 24.885 40.1161 25.1255 40.1762 25.4861C40.4167 26.4478 39.7555 27.8905 39.3948 28.4915C37.832 31.0161 35.3074 33.5407 33.2637 35.5844C32.5424 36.3057 31.8812 36.9669 31.2801 37.568C31.5807 37.3275 31.9413 37.0871 32.2419 36.8467C33.2036 36.0051 34.4058 34.7429 35.608 33.5407C36.8101 32.3385 38.0724 31.0762 39.0342 30.1746C40.056 29.273 41.7391 28.9123 42.5806 29.8139C43.5423 30.8358 42.4604 32.2183 41.4986 33.4806C41.3183 33.6609 41.1981 33.8412 41.0779 34.0817C39.6352 36.0653 37.5314 38.0488 35.7883 39.6117C34.9468 40.3931 34.0451 41.2947 33.5042 41.8357C34.8266 41.4149 36.4495 39.9122 37.832 38.5898C39.5752 36.9669 41.0177 35.5243 42.28 35.7046C42.7609 35.7647 43.1817 36.0652 43.4822 36.6062C43.9631 37.5079 42.8811 38.8303 41.0178 40.874C40.6571 41.2947 40.2964 41.6554 40.056 41.9559C36.209 46.5242 28.2747 54.699 22.6245 56.3219C18.9578 57.4039 11.5043 66.1196 11.4442 66.1798C11.3841 66.2399 11.2038 66.3 11.0836 66.3ZM1.04542 53.3165C1.46618 54.158 2.30769 55.3001 3.50987 56.7427C8.37868 62.5732 10.3623 64.5568 11.0836 65.1579C12.5863 63.4147 18.8977 56.382 22.4441 55.3602C27.1927 53.9777 34.526 47.1253 39.3948 41.2947C39.6954 40.9341 40.056 40.5734 40.4167 40.1526C41.1981 39.3111 42.8811 37.4478 42.7609 37.027C42.5806 36.7264 42.4002 36.6663 42.28 36.6062C41.4986 36.486 39.9358 37.9286 38.6134 39.1909C36.6298 41.0543 34.6462 42.9778 32.7228 42.7974C32.5424 42.7974 32.3621 42.6772 32.302 42.4969C32.0616 41.8357 32.843 41.0543 35.1872 38.8303C36.8702 37.2674 38.9139 35.3439 40.3565 33.4205C40.4768 33.2401 40.6571 32.9997 40.8374 32.8194C41.4986 31.9177 42.4002 30.8358 41.9795 30.415C41.4986 29.9342 40.3565 30.3549 39.7555 30.8358C38.7937 31.6773 37.5916 32.9396 36.3894 34.1418C35.1872 35.3439 33.9249 36.6062 32.9632 37.5079C32.4222 37.9286 30.679 39.3712 29.6572 39.3712C29.4769 39.3712 29.2965 39.251 29.2364 39.1308C29.1763 38.9505 29.1763 38.7701 29.2364 38.6499C29.8375 37.6882 31.1599 36.3658 32.6626 34.8631C34.6462 32.8795 37.1708 30.3549 38.6735 27.9506C39.0943 27.2894 39.4549 26.2074 39.3347 25.6664C39.2746 25.5462 39.2746 25.4861 39.2145 25.4861C38.9741 25.3659 38.1926 25.3058 37.0506 26.6282C31.761 32.8795 28.5151 34.9232 28.3949 34.9833L26.2911 36.1254C26.1108 36.2456 25.8102 36.1855 25.69 36.0051C25.5698 35.8248 25.5698 35.5844 25.69 35.4041C25.7501 35.3439 32.1818 28.191 34.4058 25.1255C34.6462 24.7648 35.1271 23.8031 35.0069 23.202C35.0069 23.0216 34.8867 22.9615 34.8867 22.9615C34.6462 22.8413 33.8648 23.0216 32.9632 23.5626C32.0014 24.1036 30.2583 26.0271 28.455 28.0107C27.1927 29.4533 25.8704 30.8959 24.6081 32.0981C22.2638 34.3822 21.5425 34.3822 21.1819 34.1418C21.0015 34.0216 18.4769 32.3385 16.313 31.8576C14.9305 33.4806 14.8704 33.7811 12.8267 40.0324L12.5863 40.8138C11.2038 45.0816 6.33499 49.169 1.04542 53.3165Z" fill="#1F1F1F"/>
<path d="M17.936 36.1855C17.6955 36.1855 17.5152 36.0653 17.4551 35.8249C17.395 35.5844 17.5152 35.2839 17.8157 35.2238C19.1982 34.8631 20.4605 34.5025 21.4223 33.3604C21.6026 33.1801 21.9032 33.12 22.0835 33.3003C22.2638 33.4806 22.3239 33.7812 22.1436 33.9615C21.0015 35.344 19.4387 35.7647 17.9961 36.1254C17.9961 36.1855 17.9961 36.1855 17.936 36.1855Z" fill="#1F1F1F"/>
<path d="M10.4224 60.4093C10.3623 60.4093 10.3623 60.4093 10.3022 60.3492L3.38965 52.7755C3.32954 52.7154 3.32954 52.5952 3.38965 52.5351C3.44976 52.475 3.56999 52.475 3.6301 52.5351L10.5426 60.1088C10.6027 60.1689 10.6027 60.2891 10.5426 60.3492C10.4825 60.4093 10.4224 60.4093 10.4224 60.4093Z" fill="#1F1F1F"/>
<path d="M27.4332 12.9234C27.373 12.9234 27.313 12.9234 27.313 12.8633C26.772 11.9616 26.0507 11.1802 25.2693 10.519C25.2091 10.4589 25.2091 10.3387 25.2693 10.2786C25.3294 10.2185 25.4496 10.2185 25.5097 10.2786C26.3512 10.9999 27.0725 11.7813 27.6135 12.683C27.6736 12.7431 27.6135 12.8633 27.5534 12.9234C27.4933 12.9234 27.4933 12.9234 27.4332 12.9234Z" fill="#1F1F1F"/>
<path d="M26.1108 14.1255C26.0507 14.1255 26.0507 14.1255 25.9906 14.0654L25.2693 13.4042C25.2091 13.3441 25.2091 13.2239 25.2693 13.1638C25.3294 13.1037 25.4496 13.1037 25.5097 13.1638L26.231 13.8851C26.2911 13.9452 26.2911 14.0654 26.231 14.1255C26.231 14.1255 26.1709 14.1255 26.1108 14.1255Z" fill="#1F1F1F"/>
<path d="M24.1873 26.1473C24.1272 26.1473 24.1272 26.1473 24.0671 26.0872L21.9633 23.9834C21.9032 23.9233 21.9032 23.8031 21.9633 23.743C22.0234 23.6828 22.1436 23.6828 22.2037 23.743L24.3075 25.8468C24.3676 25.9069 24.3676 26.0271 24.3075 26.0872C24.3075 26.1473 24.2474 26.1473 24.1873 26.1473Z" fill="#1F1F1F"/>
<path d="M25.0889 23.3222C25.0288 23.3222 25.0288 23.3222 24.9687 23.2621L24.2474 22.6009C24.1873 22.5408 24.1873 22.4206 24.2474 22.3605C24.3075 22.3003 24.4277 22.3003 24.4878 22.3605L25.2092 23.0216C25.2693 23.0818 25.2693 23.202 25.2092 23.2621C25.2092 23.3222 25.149 23.3222 25.0889 23.3222Z" fill="#1F1F1F"/>
<path d="M54.5422 39.6718C54.4821 39.6718 54.4821 39.6718 54.422 39.6117C53.6406 38.7702 52.7991 38.0489 51.8974 37.3276C51.8373 37.2675 51.8373 37.1472 51.8974 37.0871C51.9575 37.027 52.0778 37.027 52.1379 37.0871C53.0395 37.8084 53.881 38.5899 54.6625 39.3713C54.7226 39.4314 54.7226 39.5516 54.6625 39.6117C54.6024 39.6117 54.5422 39.6718 54.5422 39.6718Z" fill="#1F1F1F"/>
<path d="M50.9357 40.874C50.8756 40.874 50.8756 40.874 50.8155 40.8139C50.3947 40.4532 50.0341 40.0926 49.6133 39.6718C49.5532 39.6117 49.5532 39.4915 49.6133 39.4314C49.6734 39.3713 49.7937 39.3713 49.8538 39.4314C50.2144 39.8521 50.575 40.2128 50.9958 40.5734C51.0559 40.6335 51.0559 40.7538 50.9958 40.8139C51.0559 40.874 50.9958 40.874 50.9357 40.874Z" fill="#1F1F1F"/>
<path d="M44.7445 50.0706C44.6844 50.0706 44.6844 50.0706 44.6243 50.0105L43.0614 48.3876C43.0013 48.3275 43.0013 48.2072 43.0614 48.1471C43.1215 48.087 43.2418 48.087 43.3019 48.1471L44.8647 49.7701C44.9248 49.8302 44.9248 49.9504 44.8647 50.0105C44.8647 50.0706 44.8046 50.0706 44.7445 50.0706Z" fill="#1F1F1F"/>
</svg>
