<svg width="28" height="28" viewBox="0 0 28 28" fill="none" xmlns="http://www.w3.org/2000/svg">
<path d="M14 26.25C20.7655 26.25 26.25 20.7655 26.25 14C26.25 7.23451 20.7655 1.75 14 1.75C7.23451 1.75 1.75 7.23451 1.75 14C1.75 20.7655 7.23451 26.25 14 26.25Z" fill="url(#paint0_linear_18004_7024)"/>
<path fill-rule="evenodd" clip-rule="evenodd" d="M19.9632 18.5555L19.9643 18.5657C19.5423 19.5935 18.6743 20.7721 17.627 20.5363L17.6157 20.5219C16.5582 20.3286 14.0038 19.2744 12.3422 18.1567C11.4855 17.5851 10.6843 16.8886 10.0517 16.2053C9.48114 15.5982 8.89276 14.8688 8.30217 13.9792C7.05831 12.1188 6.73669 11.2628 6.73669 11.2628C6.29835 10.233 7.20474 9.09176 8.07457 8.44083L8.08429 8.4398C8.50545 8.14683 8.94184 8.18342 9.26707 8.51637C9.26707 8.51637 9.94995 9.20988 10.2471 9.55615C10.527 9.87838 10.9117 10.4017 11.1148 10.6958C11.4704 11.2222 11.3458 11.8097 11.0791 12.076L10.5479 12.629C10.2779 12.9111 10.3661 13.3726 10.3661 13.3726C10.3661 13.3726 11.5959 16.7248 14.9202 17.2525C14.9202 17.2525 15.3668 17.2466 15.5719 16.9092L15.9735 16.2458C16.1646 15.9151 16.6835 15.6635 17.2463 15.9196C18.0058 16.2686 18.9846 16.8325 19.6507 17.3674C20.0218 17.6231 20.1467 18.06 19.9632 18.5555ZM13.5101 9.36591C15.975 9.29639 17.4429 10.8589 17.624 13.0337C17.6603 13.4696 18.2943 13.4232 18.2526 12.9826C18.0438 10.5003 16.3258 8.61762 13.484 8.70118C13.0676 8.71422 13.0937 9.37895 13.5101 9.36591ZM19.981 13.4775C20.0324 13.917 19.4011 13.9891 19.3545 13.549C18.8838 9.38167 16.004 7.38913 12.7983 7.70267C12.3846 7.74129 12.3153 7.08631 12.7284 7.04257C16.3133 6.68889 19.4713 8.98831 19.981 13.4775ZM15.9523 12.657C16.0184 13.095 16.6421 12.9979 16.5761 12.5599C16.3525 11.0985 15.5125 10.3595 14.1483 10.4264C13.7325 10.4445 13.7635 11.1087 14.1842 11.0901C15.2211 11.0424 15.7797 11.5369 15.9523 12.657Z" fill="white"/>
<defs>
<linearGradient id="paint0_linear_18004_7024" x1="14" y1="1.75" x2="14" y2="26.25" gradientUnits="userSpaceOnUse">
<stop stop-color="#9747FF"/>
<stop offset="1" stop-color="#6E22D1"/>
</linearGradient>
</defs>
</svg>
