<svg width="22" height="23" viewBox="0 0 22 23" fill="none" xmlns="http://www.w3.org/2000/svg">
<path fill-rule="evenodd" clip-rule="evenodd" d="M1.00019 6.54338C1.00023 3.21904 3.70215 0.524 7.02649 0.522317C9.62704 0.521001 12.5152 0.516836 14.9876 0.512455C18.307 0.506573 21 3.19531 21 6.51478V14.0057C21 17.2176 18.471 19.8663 15.2595 19.9148C13.0718 19.9478 10.7624 19.9402 9.32903 19.8148C8.95395 20.2659 8.45934 20.8588 8.10075 21.2626C7.99215 21.3843 7.89045 21.5047 7.79324 21.6197C7.30383 22.1988 6.92809 22.6433 6.35727 22.457C5.78847 22.2765 5.82144 21.3786 5.82144 21.3786V19.7492C3.15864 19.7492 1.00003 17.5906 1.00007 14.9278L1.00019 6.54338ZM15.8949 14.6336V14.6422C15.4498 15.4584 14.6172 16.3606 13.7599 16.0728L13.7516 16.0599C12.8819 15.8064 10.8335 14.7066 9.53923 13.6325C8.87151 13.0826 8.2615 12.4339 7.79162 11.811C7.36709 11.2567 6.93843 10.5994 6.52213 9.80892C5.64421 8.15488 5.45049 7.41594 5.45049 7.41594C5.17433 6.52233 6.03577 5.6545 6.82302 5.19051H6.83126C7.21046 4.98429 7.57317 5.05303 7.81635 5.35806C7.81635 5.35806 8.32745 5.99389 8.5459 6.30752C8.75199 6.59966 9.02814 7.06795 9.1724 7.33001C9.42383 7.7983 9.2672 8.27518 9.0199 8.4728L8.52529 8.88524C8.27387 9.09575 8.30684 9.48671 8.30684 9.48671C8.30684 9.48671 9.0405 12.3781 11.7814 13.1084C11.7814 13.1084 12.1565 13.1428 12.3585 12.8807L12.7542 12.3652C12.9438 12.1074 13.4013 11.9441 13.8505 12.2062C14.4564 12.5628 15.2272 13.117 15.7383 13.6197C16.0268 13.8645 16.0928 14.2383 15.8949 14.6336ZM11.2992 6.4364C13.3724 6.59536 14.4647 8.0217 14.4235 9.84329C14.4152 10.2085 14.951 10.2257 14.9552 9.85618C15.0005 7.77682 13.7269 6.06264 11.3363 5.88219C10.986 5.85642 10.9489 6.41063 11.2992 6.4364ZM16.3607 10.419C16.3648 10.7885 15.829 10.7928 15.829 10.4233C15.8042 6.92187 13.5662 5.01436 10.8499 4.99288C10.4996 4.98858 10.4996 4.43867 10.8499 4.43867C13.8876 4.46015 16.3318 6.64692 16.3607 10.419ZM13.0551 9.3836C13.0715 9.75307 13.6032 9.72729 13.5868 9.35782C13.5291 8.12481 12.8902 7.43742 11.7402 7.37298C11.3899 7.35149 11.3569 7.9057 11.7114 7.92719C12.5852 7.97874 13.0097 8.43843 13.0551 9.3836Z" fill="white"/>
</svg>
