<svg width="22" height="23" viewBox="0 0 22 23" fill="none" xmlns="http://www.w3.org/2000/svg">
<path d="M10.9975 1.5H11.0025C16.5162 1.5 21 5.98625 21 11.5C21 17.0137 16.5162 21.5 11.0025 21.5C8.96875 21.5 7.0825 20.895 5.50125 19.8475L2.03359 20.956C1.87752 21.0059 1.73097 20.8573 1.78308 20.7019L2.90375 17.3612C1.705 15.715 1 13.6875 1 11.5C1 5.985 5.48375 1.5 10.9975 1.5Z" fill="white" stroke="white" stroke-width="1.5" stroke-linejoin="round"/>
<path d="M16.8207 15.6212C16.5795 16.3025 15.622 16.8675 14.8582 17.0325C14.3357 17.1437 13.6532 17.2325 11.3557 16.28C8.41695 15.0625 6.52445 12.0762 6.37695 11.8825C6.2357 11.6887 5.18945 10.3012 5.18945 8.86623C5.18945 7.43123 5.9182 6.73248 6.21195 6.43248C6.4532 6.18623 6.85195 6.07373 7.23445 6.07373C7.3582 6.07373 7.46945 6.07998 7.56945 6.08498C7.8632 6.09748 8.0107 6.11498 8.20445 6.57873C8.4457 7.15998 9.0332 8.59498 9.1032 8.74248C9.17445 8.88998 9.2457 9.08998 9.1457 9.28373C9.05195 9.48373 8.96945 9.57248 8.82195 9.74248C8.67445 9.91248 8.53445 10.0425 8.38695 10.225C8.25195 10.3837 8.09945 10.5537 8.26945 10.8475C8.43945 11.135 9.02695 12.0937 9.89195 12.8637C11.0082 13.8575 11.9132 14.175 12.237 14.31C12.4782 14.41 12.7657 14.3862 12.942 14.1987C13.1657 13.9575 13.442 13.5575 13.7232 13.1637C13.9232 12.8812 14.1757 12.8462 14.4407 12.9462C14.7107 13.04 16.1395 13.7462 16.4332 13.8925C16.727 14.04 16.9207 14.11 16.992 14.2337C17.062 14.3575 17.062 14.9387 16.8207 15.6212Z" fill="#24CC63"/>
</svg>
