<svg width="28" height="28" viewBox="0 0 28 28" fill="none" xmlns="http://www.w3.org/2000/svg">
<path d="M14 26.25C20.7655 26.25 26.25 20.7655 26.25 14C26.25 7.23451 20.7655 1.75 14 1.75C7.23451 1.75 1.75 7.23451 1.75 14C1.75 20.7655 7.23451 26.25 14 26.25Z" fill="url(#paint0_linear_3_95)"/>
<path d="M20.7676 17.8915C20.5028 18.633 19.4518 19.2479 18.6134 19.4275C18.0398 19.5486 17.2907 19.6452 14.7687 18.6085C11.5428 17.2833 9.46543 14.0331 9.30352 13.8222C9.14847 13.6114 8 12.1012 8 10.5394C8 8.9775 8.79995 8.21698 9.1224 7.89046C9.38722 7.62245 9.82493 7.5 10.2448 7.5C10.3806 7.5 10.5028 7.5068 10.6125 7.51224C10.935 7.52585 11.0969 7.5449 11.3096 8.04964C11.5744 8.68227 12.2193 10.2441 12.2961 10.4047C12.3743 10.5652 12.4526 10.7829 12.3428 10.9938C12.2399 11.2114 12.1493 11.308 11.9874 11.4931C11.8255 11.6781 11.6718 11.8196 11.5099 12.0182C11.3617 12.191 11.1943 12.376 11.3809 12.6957C11.5675 13.0087 12.2124 14.0522 13.1619 14.8902C14.3872 15.9718 15.3807 16.3174 15.736 16.4643C16.0009 16.5732 16.3165 16.5473 16.5099 16.3432C16.7555 16.0807 17.0588 15.6453 17.3675 15.2167C17.587 14.9093 17.8642 14.8712 18.1551 14.98C18.4515 15.0821 20.0198 15.8507 20.3423 16.0099C20.6647 16.1705 20.8774 16.2466 20.9556 16.3813C21.0325 16.516 21.0325 17.1487 20.7676 17.8915Z" fill="white"/>
<defs>
<linearGradient id="paint0_linear_3_95" x1="13.9991" y1="24.4675" x2="13.9991" y2="-0.0324924" gradientUnits="userSpaceOnUse">
<stop stop-color="#78CD51"/>
<stop offset="1" stop-color="#A0FC84"/>
</linearGradient>
</defs>
</svg>
