<svg width="29" height="25" viewBox="0 0 29 25" fill="none" xmlns="http://www.w3.org/2000/svg">
<path d="M22.5026 24.6664C20.5838 23.474 18.6751 22.2815 16.7463 21.1204C16.5956 21.0263 16.2943 21.0681 16.1335 21.1623C15.139 21.7271 14.1545 22.3443 13.17 22.93C12.8385 23.1288 12.728 23.066 12.718 22.6581C12.6677 20.9112 12.5974 19.1644 12.5773 17.4176C12.5472 15.2524 12.5773 13.0767 12.5572 10.9114C12.5572 10.4826 12.4668 10.0642 12.4266 9.63531C12.3161 8.49516 12.5271 7.41778 13.0093 6.37177C13.612 5.06426 14.1244 3.71492 14.6869 2.39695C14.928 1.82165 15.1691 1.2568 15.4404 0.69196C15.5007 0.555979 15.6413 0.461838 15.7418 0.357238C16.2943 0.116657 16.8468 0.242177 17.3993 0.367698C17.6705 0.984841 17.9518 1.59152 18.213 2.20867C18.6751 3.33835 19.1272 4.46804 19.5893 5.59773C19.8505 6.24625 20.1117 6.89477 20.393 7.53284C20.4532 7.66882 20.6039 7.81526 20.7446 7.8571C21.1062 7.95124 21.4779 8.014 21.8496 8.04538C23.0049 8.14998 24.1702 8.23366 25.3254 8.3278C26.0487 8.39056 26.772 8.47424 27.4953 8.51608C28.1383 8.55792 28.5702 8.89264 28.8616 9.45749C28.8113 9.87589 28.7611 10.2943 28.7109 10.7127C28.1584 11.2357 27.6058 11.7587 27.0533 12.2817C26.8022 12.4909 26.551 12.7001 26.2999 12.9093C25.7072 13.4741 25.1145 14.0599 24.5117 14.6143C24.14 14.9595 23.7181 15.2524 23.3665 15.608C23.2359 15.744 23.2158 15.995 23.1355 16.1938C23.1254 16.6435 23.1154 17.0933 23.4368 17.449C23.5574 18.108 23.6578 18.7774 23.8085 19.4364C24.0597 20.587 24.3912 21.7271 24.6021 22.8882C24.7126 23.5053 24.8332 24.2062 24.2003 24.6769C23.6076 24.8651 23.0551 24.8651 22.5026 24.6664Z" fill="#E4D3C2"/>
<path d="M0 24.896C0.0602748 24.76 0.0904122 24.6658 0.130595 24.5717C1.58724 21.8416 3.04388 19.1115 4.49047 16.371C5.05304 15.3041 4.97267 15.5028 4.16901 14.9275C1.19545 12.7727 0.150687 9.55105 1.02467 5.86911C1.52696 3.74572 2.632 2.03027 4.48042 0.890125C5.264 0.408962 6.10784 0.147461 7.02201 0.147461C8.32796 0.157921 9.63392 0.147461 10.9399 0.147461C11.4422 0.147461 11.4723 0.178841 11.4723 0.712304C11.4723 5.19967 11.4723 9.67657 11.4723 14.1639C11.4723 17.4798 11.4723 20.8061 11.4823 24.1219C11.4823 24.9378 11.4823 24.9378 10.6988 24.9378C10.2768 24.9378 9.84488 24.9169 9.42296 24.9378C9.07135 24.9483 8.94076 24.8123 8.94076 24.4357C8.9508 21.7998 8.9508 19.1534 8.94076 16.5174C8.94076 15.6388 9.06131 15.6806 8.15719 15.6911C6.94164 15.712 7.25306 15.4714 6.74073 16.643C5.58546 19.258 4.46033 21.873 3.32516 24.4985C3.19456 24.8018 3.02378 24.9483 2.70232 24.9378C1.92879 24.9273 1.14522 24.9378 0.371694 24.9378C0.261191 24.9483 0.150687 24.9169 0 24.896ZM8.86039 7.89836C8.86039 6.20383 8.86039 4.49884 8.86039 2.80432C8.86039 2.26039 8.8403 2.23947 8.29783 2.23947C7.896 2.23947 7.49416 2.24993 7.09233 2.23947C6.48958 2.20809 5.95716 2.41729 5.47496 2.77294C4.84207 3.22272 4.37997 3.81894 4.10873 4.55114C3.30507 6.65362 3.29502 8.79793 3.97814 10.9213C4.56079 12.7309 5.69597 13.5154 7.53435 13.5154C7.80558 13.5154 8.08687 13.5154 8.3581 13.5154C8.82021 13.5154 8.85035 13.4736 8.85035 13.0029C8.86039 11.2874 8.86039 9.59289 8.86039 7.89836Z" fill="#E4D3C2"/>
<path d="M17.3692 0.346501C16.8167 0.22098 16.2641 0.0954593 15.7116 0.336041C16.0733 -0.113742 16.9071 -0.113742 17.3692 0.346501Z" fill="#E4D3C2"/>
<path d="M22.5026 24.666C23.0551 24.8648 23.6076 24.8648 24.1601 24.666C23.8085 25.1158 22.8542 25.1158 22.5026 24.666Z" fill="#E4D3C2"/>
<path d="M28.6807 10.7015C28.731 10.2831 28.7812 9.86469 28.8314 9.44629C29.1026 9.88561 29.0424 10.3982 28.6807 10.7015Z" fill="#E4D3C2"/>
<path d="M23.4067 17.4486C23.0852 17.0825 23.1053 16.6327 23.1053 16.1934C23.2058 16.6118 23.3062 17.0302 23.4067 17.4486Z" fill="#E4D3C2"/>
</svg>
