<svg width="27" height="25" viewBox="0 0 27 25" fill="none" xmlns="http://www.w3.org/2000/svg">
<path d="M7.17973 0.00195312C10.8323 0.302307 14.4848 0.549656 18.1373 0.938349C20.1784 1.16803 22.2016 1.57439 24.189 2.01609C25.9258 2.40478 26.7136 3.41185 26.8747 5.1963C27.2507 9.01255 26.7673 12.7758 26.2301 16.5214C26.0869 17.5285 25.8004 18.5355 25.6393 19.5426C25.5856 19.8429 25.693 20.1786 25.7646 20.479C26.0511 21.6274 26.3734 22.7405 26.624 23.8889C26.6956 24.2246 26.5166 24.6133 26.445 24.9666C26.0869 24.8959 25.6393 24.9136 25.3886 24.7193C24.2427 23.8359 23.1327 22.8995 22.0405 21.9454C21.6824 21.6274 21.3959 21.4861 20.8588 21.6097C17.7792 22.2811 14.6996 22.8995 11.6021 23.5179C11.1366 23.6062 10.6532 23.6415 10.1877 23.6592C7.68106 23.8005 6.15918 22.9878 5.12071 20.7087C2.84684 15.8147 1.21753 10.6557 0.107451 5.35531C-0.071594 4.54259 -0.0178805 3.64153 0.125356 2.81114C0.429732 1.15036 1.71886 0.160964 3.58093 0.0726245C4.76262 0.019621 5.96223 0.0549567 7.16183 0.0549567C7.17973 0.0372888 7.17973 0.019621 7.17973 0.00195312ZM16.3647 18.6945C16.3647 17.0868 16.3468 15.6203 16.3827 14.1539C16.3827 13.7829 16.4722 13.3942 16.6333 13.0762C17.9403 10.5673 19.2832 8.07616 20.6081 5.58499C20.7514 5.31997 20.8767 5.01962 21.0736 4.59559C19.7487 4.59559 18.6028 4.61326 17.439 4.57792C16.884 4.56026 16.5796 4.7546 16.3468 5.26697C15.559 6.98075 14.7354 8.6592 13.876 10.4436C13.0703 8.80054 12.2467 7.26344 11.6021 5.65566C11.2262 4.73694 10.7069 4.50725 9.79379 4.56026C8.80904 4.63093 7.82429 4.57792 6.69631 4.57792C6.91116 5.03729 7.01859 5.26697 7.12602 5.49665C8.37933 7.86414 9.66846 10.214 10.886 12.5991C11.1724 13.1468 11.2978 13.8182 11.3336 14.4366C11.4052 15.6027 11.3336 16.7864 11.3873 17.9701C11.4052 18.2175 11.7275 18.6415 11.9244 18.6415C13.3568 18.7299 14.7891 18.6945 16.3647 18.6945Z" fill="#E4D3C2"/>
</svg>
