<svg width="79" height="20" viewBox="0 0 79 20" fill="none" xmlns="http://www.w3.org/2000/svg">
<path d="M0 1.70611C0.134126 1.3047 0.536502 1.1709 0.938879 1.1709C6.3039 1.1709 11.5348 1.1709 16.8998 1.1709C17.7046 1.1709 17.8387 1.3047 17.8387 2.10752C17.8387 3.04414 17.8387 3.98076 17.8387 4.78357C17.8387 5.45259 17.5705 5.854 17.1681 6.25541C14.3514 8.53005 11.5348 10.9385 8.71817 13.2132C8.58404 13.4808 8.31579 13.6146 8.31579 13.8822C8.44991 13.8822 8.58404 13.8822 8.85229 13.8822C11.5348 13.8822 14.3514 13.8822 17.034 13.8822C17.8387 13.8822 17.9728 14.016 17.9728 14.8188C17.9728 15.8892 17.9728 16.9596 17.9728 17.8963C17.9728 18.6991 17.8387 18.8329 17.034 18.8329C15.2903 18.8329 13.6808 18.8329 11.9372 18.8329C8.31579 18.8329 4.82852 18.8329 1.20713 18.8329C0.804754 18.8329 0.402377 18.6991 0.134126 18.2977C0.134126 17.0934 0.134126 15.8892 0.134126 14.685C0.402377 14.2836 0.670628 13.8822 1.07301 13.4808C3.75552 11.2061 6.43803 8.93146 9.25467 6.65681C9.38879 6.52301 9.52292 6.38921 9.79117 6.1216C9.52292 6.1216 9.25467 6.1216 9.12054 6.1216C6.43803 6.1216 3.75552 6.1216 1.07301 6.1216C0.536503 6.1216 0.268251 6.1216 0 5.72019C0 4.38217 0 3.04414 0 1.70611Z" fill="#E4D3C2"/>
<path d="M74.0373 10.9385C74.0373 10.5371 74.1715 10.4033 74.1715 10.1357C74.1715 7.45962 74.1715 4.91736 74.1715 2.24131C74.1715 1.30469 74.3056 1.30469 75.1103 1.30469C76.1834 1.30469 77.2564 1.30469 78.3294 1.30469C78.8659 1.30469 79.1341 1.57229 79.1341 2.1075C79.1341 2.24131 79.1341 2.37511 79.1341 2.50891C79.1341 7.59342 79.1341 12.8117 79.1341 17.8962C79.1341 18.8329 79 18.9667 78.0611 18.9667C77.1222 18.9667 76.3175 18.9667 75.3786 18.9667C74.8421 18.9667 74.4397 18.6991 74.0373 18.2976C71.6231 15.4878 69.2088 12.6779 66.7946 9.73427C66.6604 9.60046 66.5263 9.46666 66.2581 9.19905C66.2581 9.60046 66.2581 9.73427 66.2581 10.0019C66.2581 12.6779 66.2581 15.354 66.2581 18.03C66.2581 18.8329 66.1239 18.9667 65.3192 18.9667C64.2462 18.9667 63.1732 18.9667 62.1002 18.9667C61.5637 18.9667 61.2954 18.6991 61.2954 18.1638C61.2954 12.8117 61.2954 7.45962 61.2954 2.1075C61.2954 1.57229 61.5637 1.30469 62.1002 1.30469C63.039 1.30469 63.9779 1.30469 65.0509 1.30469C65.5874 1.30469 66.1239 1.43849 66.3922 1.9737C68.6723 4.64976 70.9525 7.32581 73.2326 10.1357C73.3667 10.2695 73.635 10.5371 74.0373 10.9385Z" fill="#E4D3C2"/>
<path d="M38.8965 10.002C38.8965 12.9457 37.9576 15.6217 35.5433 17.495C33.3973 19.1006 30.983 19.6358 28.4347 19.502C26.9593 19.3682 25.618 18.9668 24.4109 18.2978C22.399 17.2274 21.1919 15.4879 20.5212 13.4809C19.7165 11.0724 19.7165 8.7978 20.6554 6.38935C21.8625 3.04428 24.4109 1.17104 28.0323 0.769631C30.4465 0.502025 32.7267 0.769631 34.7386 1.97386C37.2869 3.44569 38.4941 5.72034 39.0306 8.53019C39.0306 8.7978 39.1647 9.06541 39.1647 9.33301C38.8965 9.46681 38.8965 9.73442 38.8965 10.002ZM29.3735 14.4175C32.056 14.4175 33.9338 12.6781 33.7997 10.002C33.7997 7.32597 32.056 5.45273 29.2394 5.58653C26.4228 5.58653 24.8133 7.32597 24.8133 10.1358C24.8133 12.8119 26.691 14.4175 29.3735 14.4175Z" fill="#E4D3C2"/>
<path d="M40.2377 10.0017C40.2377 7.3256 41.0425 4.91715 43.0543 2.91011C44.5297 1.43828 46.4075 0.769266 48.4194 0.635463C50.4312 0.367857 52.4431 0.635463 54.3209 1.57208C57.0034 2.91011 58.4788 5.18476 59.0153 7.99462C59.4177 10.2693 59.1494 12.5439 58.2105 14.551C56.8693 17.0932 54.7233 18.6988 51.9066 19.2341C49.4924 19.6355 47.0781 19.5017 44.9321 18.2974C42.2496 16.8256 40.7742 14.551 40.3718 11.6073C40.2377 11.3397 40.2377 11.0721 40.2377 10.8045C40.2377 10.5369 40.2377 10.2693 40.2377 10.0017ZM54.1868 10.0017C54.3209 7.59321 52.7114 5.58617 49.7606 5.45236C47.0781 5.45236 45.2004 7.1918 45.2004 10.0017C45.2004 12.6777 46.944 14.551 49.7606 14.551C52.7114 14.4172 54.3209 12.5439 54.1868 10.0017Z" fill="#E4D3C2"/>
</svg>
